<svg width="3496" height="1299" viewBox="0 0 3496 1299" fill="none" xmlns="http://www.w3.org/2000/svg">
<mask id="mask0_1_205" style="mask-type:luminance" maskUnits="userSpaceOnUse" x="25" y="22" width="3446" height="1255">
<path d="M25 22H3470.77V1276.02H25V22Z" fill="white"/>
</mask>
<g mask="url(#mask0_1_205)">
<mask id="mask1_1_205" style="mask-type:luminance" maskUnits="userSpaceOnUse" x="25" y="22" width="3446" height="1254">
<path d="M3445.26 648.998C3445.22 649.102 3445.15 649.166 3445.09 649.255C3439.53 656.913 3369.93 750.937 3314.38 748.673C3314.38 748.673 3322.79 857.338 3180.29 906.12C3180.29 906.12 3203.05 1078.43 3019.01 1161.92C3019.01 1161.92 2996.58 1174.1 2988.98 1158.17C2981.39 1142.21 2938.17 1107.51 2943.44 1208.19H2907.14V1252.58H588.622V1208.19H552.356C557.64 1107.51 514.424 1142.21 506.824 1158.17C499.223 1174.1 476.794 1161.92 476.794 1161.92C292.746 1078.43 315.514 906.12 315.514 906.12C173.008 857.338 181.428 748.673 181.428 748.673C125.873 750.937 56.2751 656.913 50.7166 649.255C50.6489 649.166 50.5812 649.102 50.5474 648.998C50.5812 648.938 50.6489 648.874 50.7166 648.77C56.2751 641.116 125.873 547.128 181.428 549.353C181.428 549.353 173.008 440.701 315.514 391.909C315.514 391.909 292.746 219.605 476.794 136.113C476.794 136.113 499.223 123.938 506.824 139.864C514.424 155.825 557.64 190.524 552.356 89.8483H588.622V45.4551H2907.14V89.8483H2943.44C2938.17 190.524 2981.39 155.825 2988.98 139.864C2996.58 123.938 3019.01 136.113 3019.01 136.113C3203.05 219.605 3180.29 391.909 3180.29 391.909C3322.79 440.701 3314.38 549.353 3314.38 549.353C3369.93 547.128 3439.53 641.116 3445.09 648.77C3445.15 648.874 3445.22 648.938 3445.26 648.998ZM3470.61 646.317L3466.49 638.695C3465.91 637.59 3465.22 636.56 3464.45 635.529C3447.54 612.367 3393.92 544.415 3337.58 529.584C3332.13 484.317 3300.2 415.464 3205.03 376.857C3205.28 357.829 3203.4 325.483 3191.47 288.684C3174.32 235.659 3132.34 162.67 3029.92 115.988C3026.16 114.081 3015.09 109.043 3002.65 109.043C2987.76 109.043 2975.11 116.216 2968.36 128.391C2967.17 121.09 2966.32 109.36 2967.3 90.9785L2968.53 67.231H2931V22.8414H564.763V67.231H527.272L528.498 90.9785C529.487 109.36 528.637 121.061 527.441 128.363C520.694 116.245 508.05 109.043 493.153 109.043C480.716 109.043 469.637 114.081 465.887 115.988C363.468 162.67 321.478 235.659 304.333 288.684C292.403 325.483 290.53 357.829 290.767 376.857C195.539 415.464 163.67 484.353 158.216 529.648C100.172 545.156 44.3796 617.721 31.5627 635.273L30.4382 636.624L29.1106 639.08L25.2595 646.546L27.437 654.621C28.1892 657.405 29.4829 660.015 31.2919 662.378C44.0712 679.922 100.036 752.815 158.216 768.388C163.67 813.683 195.539 882.572 290.767 921.215C290.53 940.206 292.403 972.553 304.333 1009.35C321.478 1062.41 363.468 1135.37 465.887 1182.05C469.637 1183.96 480.716 1188.99 493.153 1188.99C508.05 1188.99 520.694 1181.82 527.441 1169.67C528.637 1176.95 529.487 1188.68 528.498 1207.06L527.272 1230.8H564.763V1275.2H2931V1230.8H2968.53L2967.3 1207.06C2966.32 1188.68 2967.17 1176.95 2968.36 1169.67C2975.11 1181.79 2987.76 1188.99 3002.65 1188.99C3015.09 1188.99 3026.16 1183.96 3029.92 1182.05C3132.34 1135.37 3174.32 1062.37 3191.47 1009.35C3203.4 972.553 3205.28 940.206 3205.03 921.215C3300.2 882.572 3332.13 813.719 3337.55 768.452C3393.92 753.621 3447.57 685.58 3464.45 662.471L3467.06 659.177L3468.37 654.621L3470.61 646.317Z" fill="white"/>
</mask>
<g mask="url(#mask1_1_205)">
<mask id="mask2_1_205" style="mask-type:luminance" maskUnits="userSpaceOnUse" x="25" y="22" width="3446" height="1254">
<path d="M3445.26 648.998C3445.22 649.102 3445.15 649.166 3445.09 649.255C3439.53 656.913 3369.93 750.937 3314.38 748.673C3314.38 748.673 3322.79 857.338 3180.29 906.12C3180.29 906.12 3203.05 1078.43 3019.01 1161.92C3019.01 1161.92 2996.58 1174.1 2988.98 1158.17C2981.39 1142.21 2938.17 1107.51 2943.44 1208.19H2907.14V1252.58H588.622V1208.19H552.356C557.64 1107.51 514.424 1142.21 506.824 1158.17C499.223 1174.1 476.794 1161.92 476.794 1161.92C292.746 1078.43 315.514 906.12 315.514 906.12C173.008 857.338 181.428 748.673 181.428 748.673C125.873 750.937 56.2751 656.913 50.7166 649.255C50.6489 649.166 50.5812 649.102 50.5474 648.998C50.5812 648.938 50.6489 648.874 50.7166 648.77C56.2751 641.116 125.873 547.128 181.428 549.353C181.428 549.353 173.008 440.701 315.514 391.909C315.514 391.909 292.746 219.605 476.794 136.113C476.794 136.113 499.223 123.938 506.824 139.864C514.424 155.825 557.64 190.524 552.356 89.8483H588.622V45.4551H2907.14V89.8483H2943.44C2938.17 190.524 2981.39 155.825 2988.98 139.864C2996.58 123.938 3019.01 136.113 3019.01 136.113C3203.05 219.605 3180.29 391.909 3180.29 391.909C3322.79 440.701 3314.38 549.353 3314.38 549.353C3369.93 547.128 3439.53 641.116 3445.09 648.77C3445.15 648.874 3445.22 648.938 3445.26 648.998ZM3470.61 646.317L3466.49 638.695C3465.91 637.59 3465.22 636.56 3464.45 635.529C3447.54 612.367 3393.92 544.415 3337.58 529.584C3332.13 484.317 3300.2 415.464 3205.03 376.857C3205.28 357.829 3203.4 325.483 3191.47 288.684C3174.32 235.659 3132.34 162.67 3029.92 115.988C3026.16 114.081 3015.09 109.043 3002.65 109.043C2987.76 109.043 2975.11 116.216 2968.36 128.391C2967.17 121.09 2966.32 109.36 2967.3 90.9785L2968.53 67.231H2931V22.8414H564.763V67.231H527.272L528.498 90.9785C529.487 109.36 528.637 121.061 527.441 128.363C520.694 116.245 508.05 109.043 493.153 109.043C480.716 109.043 469.637 114.081 465.887 115.988C363.468 162.67 321.478 235.659 304.333 288.684C292.403 325.483 290.53 357.829 290.767 376.857C195.539 415.464 163.67 484.353 158.216 529.648C100.172 545.156 44.3796 617.721 31.5627 635.273L30.4382 636.624L29.1106 639.08L25.2595 646.546L27.437 654.621C28.1892 657.405 29.4829 660.015 31.2919 662.378C44.0712 679.922 100.036 752.815 158.216 768.388C163.67 813.683 195.539 882.572 290.767 921.215C290.53 940.206 292.403 972.553 304.333 1009.35C321.478 1062.41 363.468 1135.37 465.887 1182.05C469.637 1183.96 480.716 1188.99 493.153 1188.99C508.05 1188.99 520.694 1181.82 527.441 1169.67C528.637 1176.95 529.487 1188.68 528.498 1207.06L527.272 1230.8H564.763V1275.2H2931V1230.8H2968.53L2967.3 1207.06C2966.32 1188.68 2967.17 1176.95 2968.36 1169.67C2975.11 1181.79 2987.76 1188.99 3002.65 1188.99C3015.09 1188.99 3026.16 1183.96 3029.92 1182.05C3132.34 1135.37 3174.32 1062.37 3191.47 1009.35C3203.4 972.553 3205.28 940.206 3205.03 921.215C3300.2 882.572 3332.13 813.719 3337.55 768.452C3393.92 753.621 3447.57 685.58 3464.45 662.471L3467.06 659.177L3468.37 654.621L3470.61 646.317Z" fill="white"/>
</mask>
<g mask="url(#mask2_1_205)">
<path d="M4068.99 914.224L1018.33 2754.53L-573.124 383.812L2477.54 -1456.5L4068.99 914.224Z" fill="url(#paint0_linear_1_205)"/>
<circle cx="2852.97" cy="373.813" r="50" fill="#D9D9D9"/>
</g>
</g>
</g>
<mask id="mask3_1_205" style="mask-type:luminance" maskUnits="userSpaceOnUse" x="0" y="0" width="3497" height="1299">
<path d="M0 0H3496V1298.02H0V0Z" fill="white"/>
</mask>
<g mask="url(#mask3_1_205)">
<mask id="mask4_1_205" style="mask-type:luminance" maskUnits="userSpaceOnUse" x="0" y="0" width="3497" height="1299">
<path d="M3470.64 646.372L3468.4 654.677L3467.1 659.234L3464.48 662.529C3447.6 685.644 3393.96 753.7 3337.58 768.535C3332.16 813.812 3300.23 882.682 3205.07 921.333C3205.31 940.329 3203.43 972.683 3191.5 1009.49C3174.36 1062.52 3132.37 1135.53 3029.95 1182.23C3026.19 1184.13 3015.12 1189.17 3002.68 1189.17C2987.79 1189.17 2975.14 1181.97 2968.39 1169.85C2967.2 1177.12 2966.35 1188.86 2967.33 1207.24L2968.56 1231H2931.03V1275.4H564.795V1231H527.304L528.53 1207.24C529.519 1188.86 528.669 1177.12 527.473 1169.85C520.726 1182 508.082 1189.17 493.185 1189.17C480.748 1189.17 469.669 1184.13 465.919 1182.23C363.5 1135.53 321.51 1062.56 304.365 1009.49C292.435 972.683 290.563 940.329 290.799 921.333C195.571 882.682 163.702 813.776 158.249 768.471C100.068 752.894 44.1034 679.985 31.324 662.436C29.5151 660.072 28.2213 657.462 27.4692 654.677L25.2917 646.6L29.1428 639.133L30.4703 636.676L31.5948 635.324C44.4118 617.769 100.204 545.187 158.249 529.675C163.702 484.37 195.571 415.464 290.799 376.848C290.563 357.817 292.435 325.463 304.365 288.655C321.51 235.618 363.5 162.612 465.919 115.919C469.669 114.011 480.748 108.972 493.185 108.972C508.082 108.972 520.726 116.176 527.473 128.296C528.669 120.993 529.519 109.29 528.53 90.9035L527.304 67.1506H564.795V22.7507H2931.03V67.1506H2968.56L2967.33 90.9035C2966.35 109.29 2967.2 121.022 2968.39 128.325C2975.14 116.147 2987.79 108.972 3002.68 108.972C3015.12 108.972 3026.19 114.011 3029.95 115.919C3132.37 162.612 3174.36 235.618 3191.5 288.655C3203.43 325.463 3205.31 357.817 3205.07 376.848C3300.23 415.464 3332.16 484.334 3337.61 529.611C3393.96 544.445 3447.57 612.413 3464.48 635.581C3465.26 636.612 3465.94 637.642 3466.52 638.748L3470.64 646.372ZM3496 643.687L3487.76 628.442C3486.66 626.399 3485.37 624.398 3483.94 622.49C3464.34 595.671 3415.4 535.071 3358.85 512.705C3351.08 477.031 3323.82 406.253 3228.72 362.206C3227.84 341.01 3224.36 312.985 3214.34 282.029C3195.8 224.763 3150.63 146.009 3040.71 95.7533C3034.69 92.7115 3019.89 86.3498 3002.68 86.3498C2998.83 86.3498 2995.05 86.6707 2991.4 87.252L2993.64 44.5316H2954.89V0.117421H540.937V44.5316H502.219L504.468 87.252C500.82 86.6707 497.04 86.3498 493.185 86.3498C475.976 86.3498 461.218 92.7115 455.148 95.7533C345.23 146.009 300.07 224.763 281.529 282.029C271.51 312.985 268.031 341.01 267.148 362.206C171.949 406.289 144.717 477.159 136.981 512.844C78.8009 536.165 28.1537 600.388 12.4409 621.813L10.2934 624.363L7.7022 629.209L0 644.143L4.36257 660.275C5.8293 665.735 8.34907 670.874 11.8278 675.456C27.1307 696.499 78.2217 761.752 136.981 785.302C144.717 820.987 171.916 891.857 267.148 935.94C268.031 957.136 271.51 985.154 281.529 1016.12C300.07 1073.38 345.23 1152.14 455.148 1202.39C461.218 1205.43 475.976 1211.8 493.185 1211.8C497.04 1211.8 500.82 1211.48 504.468 1210.89L502.219 1253.61H540.937V1298.02H2954.89V1253.61H2993.64L2991.4 1210.89C2995.05 1211.48 2998.83 1211.8 3002.68 1211.8C3019.89 1211.8 3034.69 1205.43 3040.71 1202.39C3150.63 1152.14 3195.8 1073.38 3214.34 1016.12C3224.36 985.154 3227.84 957.136 3228.72 935.94C3323.82 891.893 3351.08 821.115 3358.85 785.43C3415.29 763.104 3464.17 702.707 3483.83 675.748L3488.94 669.322L3491.44 660.529L3496 643.687Z" fill="white"/>
</mask>
<g mask="url(#mask4_1_205)">
<mask id="mask5_1_205" style="mask-type:luminance" maskUnits="userSpaceOnUse" x="0" y="0" width="3497" height="1299">
<path d="M3470.64 646.372L3468.4 654.677L3467.1 659.234L3464.48 662.529C3447.6 685.644 3393.96 753.7 3337.58 768.535C3332.16 813.812 3300.23 882.682 3205.07 921.333C3205.31 940.329 3203.43 972.683 3191.5 1009.49C3174.36 1062.52 3132.37 1135.53 3029.95 1182.23C3026.19 1184.13 3015.12 1189.17 3002.68 1189.17C2987.79 1189.17 2975.14 1181.97 2968.39 1169.85C2967.2 1177.12 2966.35 1188.86 2967.33 1207.24L2968.56 1231H2931.03V1275.4H564.795V1231H527.304L528.53 1207.24C529.519 1188.86 528.669 1177.12 527.473 1169.85C520.726 1182 508.082 1189.17 493.185 1189.17C480.748 1189.17 469.669 1184.13 465.919 1182.23C363.5 1135.53 321.51 1062.56 304.365 1009.49C292.435 972.683 290.563 940.329 290.799 921.333C195.571 882.682 163.702 813.776 158.249 768.471C100.068 752.894 44.1034 679.985 31.324 662.436C29.5151 660.072 28.2213 657.462 27.4692 654.677L25.2917 646.6L29.1428 639.133L30.4703 636.676L31.5948 635.324C44.4118 617.769 100.204 545.187 158.249 529.675C163.702 484.37 195.571 415.464 290.799 376.848C290.563 357.817 292.435 325.463 304.365 288.655C321.51 235.618 363.5 162.612 465.919 115.919C469.669 114.011 480.748 108.972 493.185 108.972C508.082 108.972 520.726 116.176 527.473 128.296C528.669 120.993 529.519 109.29 528.53 90.9035L527.304 67.1506H564.795V22.7507H2931.03V67.1506H2968.56L2967.33 90.9035C2966.35 109.29 2967.2 121.022 2968.39 128.325C2975.14 116.147 2987.79 108.972 3002.68 108.972C3015.12 108.972 3026.19 114.011 3029.95 115.919C3132.37 162.612 3174.36 235.618 3191.5 288.655C3203.43 325.463 3205.31 357.817 3205.07 376.848C3300.23 415.464 3332.16 484.334 3337.61 529.611C3393.96 544.445 3447.57 612.413 3464.48 635.581C3465.26 636.612 3465.94 637.642 3466.52 638.748L3470.64 646.372ZM3496 643.687L3487.76 628.442C3486.66 626.399 3485.37 624.398 3483.94 622.49C3464.34 595.671 3415.4 535.071 3358.85 512.705C3351.08 477.031 3323.82 406.253 3228.72 362.206C3227.84 341.01 3224.36 312.985 3214.34 282.029C3195.8 224.763 3150.63 146.009 3040.71 95.7533C3034.69 92.7115 3019.89 86.3498 3002.68 86.3498C2998.83 86.3498 2995.05 86.6707 2991.4 87.252L2993.64 44.5316H2954.89V0.117421H540.937V44.5316H502.219L504.468 87.252C500.82 86.6707 497.04 86.3498 493.185 86.3498C475.976 86.3498 461.218 92.7115 455.148 95.7533C345.23 146.009 300.07 224.763 281.529 282.029C271.51 312.985 268.031 341.01 267.148 362.206C171.949 406.289 144.717 477.159 136.981 512.844C78.8009 536.165 28.1537 600.388 12.4409 621.813L10.2934 624.363L7.7022 629.209L0 644.143L4.36257 660.275C5.8293 665.735 8.34907 670.874 11.8278 675.456C27.1307 696.499 78.2217 761.752 136.981 785.302C144.717 820.987 171.916 891.857 267.148 935.94C268.031 957.136 271.51 985.154 281.529 1016.12C300.07 1073.38 345.23 1152.14 455.148 1202.39C461.218 1205.43 475.976 1211.8 493.185 1211.8C497.04 1211.8 500.82 1211.48 504.468 1210.89L502.219 1253.61H540.937V1298.02H2954.89V1253.61H2993.64L2991.4 1210.89C2995.05 1211.48 2998.83 1211.8 3002.68 1211.8C3019.89 1211.8 3034.69 1205.43 3040.71 1202.39C3150.63 1152.14 3195.8 1073.38 3214.34 1016.12C3224.36 985.154 3227.84 957.136 3228.72 935.94C3323.82 891.893 3351.08 821.115 3358.85 785.43C3415.29 763.104 3464.17 702.707 3483.83 675.748L3488.94 669.322L3491.44 660.529L3496 643.687Z" fill="white"/>
</mask>
<g mask="url(#mask5_1_205)">
<path d="M0 1298.02V0.117421H3496V1298.02H0Z" fill="url(#paint1_linear_1_205)"/>
</g>
</g>
</g>
<mask id="mask6_1_205" style="mask-type:luminance" maskUnits="userSpaceOnUse" x="50" y="44" width="3396" height="1210">
<path d="M50.0643 44.7316H3445.77V1253.4H50.0643V44.7316Z" fill="white"/>
</mask>
<g mask="url(#mask6_1_205)">
<mask id="mask7_1_205" style="mask-type:luminance" maskUnits="userSpaceOnUse" x="50" y="45" width="3396" height="1208">
<path d="M3445.29 649.064C3445.25 648.993 3445.19 648.918 3445.11 648.825C3439.55 641.176 3369.95 547.149 3314.42 549.384C3314.42 549.384 3322.83 440.708 3180.34 391.904C3180.34 391.904 3203.1 219.578 3019.02 136.056C3019.02 136.056 2996.6 123.86 2989.01 139.807C2981.42 155.765 2938.21 190.483 2943.49 89.7732H2907.2V45.3519H588.654V89.7732H552.373C557.661 190.483 514.453 155.765 506.86 139.807C499.267 123.86 476.841 136.056 476.841 136.056C292.774 219.578 315.531 391.904 315.531 391.904C173.033 440.708 181.446 549.384 181.446 549.384C125.898 547.149 56.2998 641.176 50.7563 648.825C50.6773 648.918 50.6209 648.993 50.5796 649.064C50.5984 649.135 50.6773 649.21 50.7563 649.321C56.2998 656.97 125.898 751.015 181.446 748.762C181.446 748.762 173.033 857.442 315.531 906.242C315.531 906.242 292.774 1078.57 476.841 1162.09C476.841 1162.09 499.267 1174.29 506.86 1158.34C514.453 1142.38 557.661 1107.66 552.373 1208.37H588.654V1252.78H2907.2V1208.37H2943.49C2938.21 1107.66 2981.42 1142.38 2989.01 1158.34C2996.6 1174.29 3019.02 1162.09 3019.02 1162.09C3203.1 1078.57 3180.34 906.242 3180.34 906.242C3322.83 857.442 3314.42 748.762 3314.42 748.762C3369.95 751.015 3439.55 656.97 3445.11 649.321C3445.19 649.21 3445.27 649.135 3445.29 649.064Z" fill="white"/>
</mask>
<g mask="url(#mask7_1_205)">
<mask id="mask8_1_205" style="mask-type:luminance" maskUnits="userSpaceOnUse" x="50" y="45" width="3396" height="1208">
<path d="M3445.29 649.064C3445.25 648.993 3445.19 648.918 3445.11 648.825C3439.55 641.176 3369.95 547.149 3314.42 549.384C3314.42 549.384 3322.83 440.708 3180.34 391.904C3180.34 391.904 3203.1 219.578 3019.02 136.056C3019.02 136.056 2996.6 123.86 2989.01 139.807C2981.42 155.765 2938.21 190.483 2943.49 89.7732H2907.2V45.3519H588.654V89.7732H552.373C557.661 190.483 514.453 155.765 506.86 139.807C499.267 123.86 476.841 136.056 476.841 136.056C292.774 219.578 315.531 391.904 315.531 391.904C173.033 440.708 181.446 549.384 181.446 549.384C125.898 547.149 56.2998 641.176 50.7563 648.825C50.6773 648.918 50.6209 648.993 50.5796 649.064C50.5984 649.135 50.6773 649.21 50.7563 649.321C56.2998 656.97 125.898 751.015 181.446 748.762C181.446 748.762 173.033 857.442 315.531 906.242C315.531 906.242 292.774 1078.57 476.841 1162.09C476.841 1162.09 499.267 1174.29 506.86 1158.34C514.453 1142.38 557.661 1107.66 552.373 1208.37H588.654V1252.78H2907.2V1208.37H2943.49C2938.21 1107.66 2981.42 1142.38 2989.01 1158.34C2996.6 1174.29 3019.02 1162.09 3019.02 1162.09C3203.1 1078.57 3180.34 906.242 3180.34 906.242C3322.83 857.442 3314.42 748.762 3314.42 748.762C3369.95 751.015 3439.55 656.97 3445.11 649.321C3445.19 649.21 3445.27 649.135 3445.29 649.064Z" fill="white"/>
</mask>
<g mask="url(#mask8_1_205)">
<path d="M50.5796 1252.78V45.3519H3445.29V1252.78H50.5796Z" fill="url(#paint2_radial_1_205)"/>
</g>
</g>
</g>
<defs>
<linearGradient id="paint0_linear_1_205" x1="2543.65" y1="1834.39" x2="1070.47" y2="-607.684" gradientUnits="userSpaceOnUse">
<stop stop-color="#A0441E"/>
<stop offset="0.00390625" stop-color="#A2461E"/>
<stop offset="0.0078125" stop-color="#A3491E"/>
<stop offset="0.0117188" stop-color="#A44B1E"/>
<stop offset="0.015625" stop-color="#A54D1E"/>
<stop offset="0.0195312" stop-color="#A64F1E"/>
<stop offset="0.0234375" stop-color="#A8511E"/>
<stop offset="0.0273438" stop-color="#AA541E"/>
<stop offset="0.03125" stop-color="#AB561E"/>
<stop offset="0.0351562" stop-color="#AC581E"/>
<stop offset="0.0390625" stop-color="#AE5A1E"/>
<stop offset="0.0429688" stop-color="#AF5D1E"/>
<stop offset="0.046875" stop-color="#B05F1E"/>
<stop offset="0.0507812" stop-color="#B2621D"/>
<stop offset="0.0546875" stop-color="#B3641D"/>
<stop offset="0.0585938" stop-color="#B4671D"/>
<stop offset="0.0625" stop-color="#B5691D"/>
<stop offset="0.0664062" stop-color="#B66C1D"/>
<stop offset="0.0703125" stop-color="#B86E1D"/>
<stop offset="0.0742188" stop-color="#B9711D"/>
<stop offset="0.078125" stop-color="#BB731C"/>
<stop offset="0.0820312" stop-color="#BC761C"/>
<stop offset="0.0859375" stop-color="#BD781C"/>
<stop offset="0.0898438" stop-color="#BE7B1C"/>
<stop offset="0.09375" stop-color="#C07D1C"/>
<stop offset="0.0976562" stop-color="#C1801C"/>
<stop offset="0.101562" stop-color="#C3821D"/>
<stop offset="0.105469" stop-color="#C4841D"/>
<stop offset="0.109375" stop-color="#C5861E"/>
<stop offset="0.113281" stop-color="#C68920"/>
<stop offset="0.117188" stop-color="#C78B22"/>
<stop offset="0.121094" stop-color="#C88E23"/>
<stop offset="0.125" stop-color="#C99024"/>
<stop offset="0.128906" stop-color="#CA9225"/>
<stop offset="0.132812" stop-color="#CB9525"/>
<stop offset="0.136719" stop-color="#CD9826"/>
<stop offset="0.140625" stop-color="#CF9A27"/>
<stop offset="0.144531" stop-color="#D19D28"/>
<stop offset="0.148438" stop-color="#D29F28"/>
<stop offset="0.152344" stop-color="#D3A129"/>
<stop offset="0.15625" stop-color="#D4A32A"/>
<stop offset="0.160156" stop-color="#D5A62B"/>
<stop offset="0.164062" stop-color="#D7A92C"/>
<stop offset="0.167969" stop-color="#D8AB2D"/>
<stop offset="0.171875" stop-color="#D9AD2F"/>
<stop offset="0.175781" stop-color="#DAAF30"/>
<stop offset="0.179688" stop-color="#DCB131"/>
<stop offset="0.183594" stop-color="#DDB432"/>
<stop offset="0.1875" stop-color="#DEB633"/>
<stop offset="0.191406" stop-color="#DFB834"/>
<stop offset="0.195312" stop-color="#E0BA35"/>
<stop offset="0.199219" stop-color="#E2BD36"/>
<stop offset="0.203125" stop-color="#E3BF37"/>
<stop offset="0.207031" stop-color="#E5C237"/>
<stop offset="0.210938" stop-color="#E6C438"/>
<stop offset="0.214844" stop-color="#E8C73A"/>
<stop offset="0.21875" stop-color="#E9CA3B"/>
<stop offset="0.222656" stop-color="#EACD3C"/>
<stop offset="0.226562" stop-color="#EBCF3C"/>
<stop offset="0.230469" stop-color="#EDD23D"/>
<stop offset="0.234375" stop-color="#EFD53E"/>
<stop offset="0.238281" stop-color="#F0D73E"/>
<stop offset="0.242188" stop-color="#F2D93F"/>
<stop offset="0.246094" stop-color="#F3DC40"/>
<stop offset="0.25" stop-color="#F4DF42"/>
<stop offset="0.253906" stop-color="#F4E143"/>
<stop offset="0.257812" stop-color="#F5E345"/>
<stop offset="0.261719" stop-color="#F5E244"/>
<stop offset="0.265625" stop-color="#F5E144"/>
<stop offset="0.269531" stop-color="#F3DD41"/>
<stop offset="0.273438" stop-color="#F1D93F"/>
<stop offset="0.277344" stop-color="#EFD53E"/>
<stop offset="0.28125" stop-color="#EDD13D"/>
<stop offset="0.285156" stop-color="#EBCE3C"/>
<stop offset="0.289062" stop-color="#E9CA3A"/>
<stop offset="0.292969" stop-color="#E7C539"/>
<stop offset="0.296875" stop-color="#E4C137"/>
<stop offset="0.300781" stop-color="#E2BD36"/>
<stop offset="0.304688" stop-color="#E0BA35"/>
<stop offset="0.308594" stop-color="#DEB733"/>
<stop offset="0.3125" stop-color="#DCB432"/>
<stop offset="0.316406" stop-color="#DBB130"/>
<stop offset="0.320312" stop-color="#D9AD2F"/>
<stop offset="0.324219" stop-color="#D7AA2D"/>
<stop offset="0.328125" stop-color="#D5A62B"/>
<stop offset="0.332031" stop-color="#D4A32A"/>
<stop offset="0.335938" stop-color="#D2A029"/>
<stop offset="0.339844" stop-color="#D19D28"/>
<stop offset="0.34375" stop-color="#CF9A27"/>
<stop offset="0.347656" stop-color="#CD9726"/>
<stop offset="0.351562" stop-color="#CB9325"/>
<stop offset="0.355469" stop-color="#CA9024"/>
<stop offset="0.359375" stop-color="#C88E23"/>
<stop offset="0.363281" stop-color="#C78B21"/>
<stop offset="0.367188" stop-color="#C6891F"/>
<stop offset="0.371094" stop-color="#C5861E"/>
<stop offset="0.375" stop-color="#C3831D"/>
<stop offset="0.378906" stop-color="#C1801C"/>
<stop offset="0.382812" stop-color="#BF7D1C"/>
<stop offset="0.386719" stop-color="#BE7B1C"/>
<stop offset="0.390625" stop-color="#BD781C"/>
<stop offset="0.394531" stop-color="#BC751C"/>
<stop offset="0.398438" stop-color="#BA721D"/>
<stop offset="0.402344" stop-color="#B9701D"/>
<stop offset="0.40625" stop-color="#B76E1D"/>
<stop offset="0.410156" stop-color="#B66B1D"/>
<stop offset="0.414062" stop-color="#B5691D"/>
<stop offset="0.417969" stop-color="#B3661D"/>
<stop offset="0.421875" stop-color="#B2641D"/>
<stop offset="0.425781" stop-color="#B1611D"/>
<stop offset="0.429688" stop-color="#B05F1E"/>
<stop offset="0.433594" stop-color="#AF5D1E"/>
<stop offset="0.4375" stop-color="#AE5C1E"/>
<stop offset="0.441406" stop-color="#AD5A1E"/>
<stop offset="0.445312" stop-color="#AC581E"/>
<stop offset="0.449219" stop-color="#AB561E"/>
<stop offset="0.453125" stop-color="#AA541E"/>
<stop offset="0.457031" stop-color="#A9521E"/>
<stop offset="0.460938" stop-color="#A8511E"/>
<stop offset="0.464844" stop-color="#A64F1E"/>
<stop offset="0.46875" stop-color="#A54D1E"/>
<stop offset="0.472656" stop-color="#A44C1E"/>
<stop offset="0.476562" stop-color="#A44B1E"/>
<stop offset="0.480469" stop-color="#A3491E"/>
<stop offset="0.484375" stop-color="#A3481E"/>
<stop offset="0.488281" stop-color="#A2471E"/>
<stop offset="0.492188" stop-color="#A2451E"/>
<stop offset="0.496094" stop-color="#A1441E"/>
<stop offset="0.5" stop-color="#A0431E"/>
<stop offset="0.503906" stop-color="#9F421E"/>
<stop offset="0.507812" stop-color="#9F411E"/>
<stop offset="0.511719" stop-color="#9E411E"/>
<stop offset="0.515625" stop-color="#9D401E"/>
<stop offset="0.519531" stop-color="#9D3F1E"/>
<stop offset="0.523438" stop-color="#9C3F1E"/>
<stop offset="0.53125" stop-color="#9C3E1E"/>
<stop offset="0.535156" stop-color="#9B3D1E"/>
<stop offset="0.539062" stop-color="#9B3D1E"/>
<stop offset="0.546875" stop-color="#9C3D1E"/>
<stop offset="0.550781" stop-color="#9E401E"/>
<stop offset="0.554688" stop-color="#A1431E"/>
<stop offset="0.558594" stop-color="#A2461E"/>
<stop offset="0.5625" stop-color="#A4491E"/>
<stop offset="0.566406" stop-color="#A64D1E"/>
<stop offset="0.570312" stop-color="#A9501E"/>
<stop offset="0.574219" stop-color="#AB531E"/>
<stop offset="0.578125" stop-color="#AD571E"/>
<stop offset="0.582031" stop-color="#AF5A1E"/>
<stop offset="0.585938" stop-color="#B15D1E"/>
<stop offset="0.589844" stop-color="#B3611E"/>
<stop offset="0.59375" stop-color="#B5641D"/>
<stop offset="0.597656" stop-color="#B7681D"/>
<stop offset="0.601562" stop-color="#B96B1D"/>
<stop offset="0.605469" stop-color="#BB6F1D"/>
<stop offset="0.609375" stop-color="#BD721C"/>
<stop offset="0.613281" stop-color="#BF761C"/>
<stop offset="0.617188" stop-color="#C1791C"/>
<stop offset="0.621094" stop-color="#C37D1C"/>
<stop offset="0.625" stop-color="#C5811D"/>
<stop offset="0.628906" stop-color="#C8841E"/>
<stop offset="0.632812" stop-color="#CA8820"/>
<stop offset="0.636719" stop-color="#CC8B22"/>
<stop offset="0.640625" stop-color="#CE8E24"/>
<stop offset="0.644531" stop-color="#D09224"/>
<stop offset="0.648438" stop-color="#D19526"/>
<stop offset="0.652344" stop-color="#D39927"/>
<stop offset="0.65625" stop-color="#D69C28"/>
<stop offset="0.660156" stop-color="#D8A029"/>
<stop offset="0.664062" stop-color="#DAA32A"/>
<stop offset="0.667969" stop-color="#DCA72C"/>
<stop offset="0.671875" stop-color="#DEAA2E"/>
<stop offset="0.675781" stop-color="#E0AD30"/>
<stop offset="0.679688" stop-color="#E2B032"/>
<stop offset="0.683594" stop-color="#E3B333"/>
<stop offset="0.6875" stop-color="#E5B734"/>
<stop offset="0.691406" stop-color="#E7BA35"/>
<stop offset="0.695312" stop-color="#EABD36"/>
<stop offset="0.699219" stop-color="#ECC238"/>
<stop offset="0.703125" stop-color="#EFC639"/>
<stop offset="0.707031" stop-color="#F1C93B"/>
<stop offset="0.710938" stop-color="#F3CD3C"/>
<stop offset="0.714844" stop-color="#F5D03D"/>
<stop offset="0.71875" stop-color="#F7D43F"/>
<stop offset="0.722656" stop-color="#F6D23E"/>
<stop offset="0.726562" stop-color="#F5D03D"/>
<stop offset="0.730469" stop-color="#F4CE3C"/>
<stop offset="0.734375" stop-color="#F3CC3C"/>
<stop offset="0.738281" stop-color="#F2CA3B"/>
<stop offset="0.742188" stop-color="#F1C83A"/>
<stop offset="0.746094" stop-color="#EFC539"/>
<stop offset="0.75" stop-color="#EDC238"/>
<stop offset="0.753906" stop-color="#EBC037"/>
<stop offset="0.757812" stop-color="#EABE36"/>
<stop offset="0.761719" stop-color="#E9BC35"/>
<stop offset="0.765625" stop-color="#E7B935"/>
<stop offset="0.769531" stop-color="#E6B734"/>
<stop offset="0.773438" stop-color="#E5B634"/>
<stop offset="0.777344" stop-color="#E3B433"/>
<stop offset="0.78125" stop-color="#E2B232"/>
<stop offset="0.785156" stop-color="#E1B031"/>
<stop offset="0.789062" stop-color="#E0AD30"/>
<stop offset="0.792969" stop-color="#DFAC2F"/>
<stop offset="0.796875" stop-color="#DEAA2E"/>
<stop offset="0.800781" stop-color="#DCA82D"/>
<stop offset="0.804688" stop-color="#DBA62C"/>
<stop offset="0.808594" stop-color="#DAA42B"/>
<stop offset="0.8125" stop-color="#D9A22A"/>
<stop offset="0.816406" stop-color="#D8A029"/>
<stop offset="0.820312" stop-color="#D69D28"/>
<stop offset="0.824219" stop-color="#D59B27"/>
<stop offset="0.828125" stop-color="#D49A27"/>
<stop offset="0.832031" stop-color="#D29726"/>
<stop offset="0.835938" stop-color="#D19526"/>
<stop offset="0.839844" stop-color="#D09325"/>
<stop offset="0.84375" stop-color="#CE9024"/>
<stop offset="0.847656" stop-color="#CE8F24"/>
<stop offset="0.851562" stop-color="#CD8D23"/>
<stop offset="0.855469" stop-color="#CC8B22"/>
<stop offset="0.859375" stop-color="#CB8921"/>
<stop offset="0.863281" stop-color="#CA8720"/>
<stop offset="0.867188" stop-color="#C8851E"/>
<stop offset="0.871094" stop-color="#C7831E"/>
<stop offset="0.875" stop-color="#C6811D"/>
<stop offset="0.878906" stop-color="#C57F1C"/>
<stop offset="0.882812" stop-color="#C47D1B"/>
<stop offset="0.886719" stop-color="#C27A1C"/>
<stop offset="0.890625" stop-color="#C1781C"/>
<stop offset="0.894531" stop-color="#C0761C"/>
<stop offset="0.898438" stop-color="#BE741C"/>
<stop offset="0.902344" stop-color="#BD731C"/>
<stop offset="0.90625" stop-color="#BC711D"/>
<stop offset="0.910156" stop-color="#BB6F1D"/>
<stop offset="0.914062" stop-color="#BA6D1D"/>
<stop offset="0.917969" stop-color="#B96B1D"/>
<stop offset="0.921875" stop-color="#B8691D"/>
<stop offset="0.925781" stop-color="#B6671D"/>
<stop offset="0.929688" stop-color="#B5651D"/>
<stop offset="0.933594" stop-color="#B4621D"/>
<stop offset="0.9375" stop-color="#B3601E"/>
<stop offset="0.941406" stop-color="#B15E1E"/>
<stop offset="0.945312" stop-color="#B05C1E"/>
<stop offset="0.949219" stop-color="#AF5A1E"/>
<stop offset="0.953125" stop-color="#AE581E"/>
<stop offset="0.957031" stop-color="#AD571E"/>
<stop offset="0.960938" stop-color="#AC551E"/>
<stop offset="0.964844" stop-color="#AB531E"/>
<stop offset="0.96875" stop-color="#A9521E"/>
<stop offset="0.972656" stop-color="#A8501E"/>
<stop offset="0.976562" stop-color="#A74E1E"/>
<stop offset="0.980469" stop-color="#A54C1E"/>
<stop offset="0.984375" stop-color="#A44A1E"/>
<stop offset="0.988281" stop-color="#A3481E"/>
<stop offset="0.992188" stop-color="#A2471E"/>
<stop offset="0.996094" stop-color="#A1451E"/>
<stop offset="1" stop-color="#A0431E"/>
</linearGradient>
<linearGradient id="paint1_linear_1_205" x1="-1.64009e-05" y1="649.073" x2="3496" y2="649.073" gradientUnits="userSpaceOnUse">
<stop stop-color="#A64F1E"/>
<stop offset="0.00390625" stop-color="#A8521E"/>
<stop offset="0.0078125" stop-color="#AB551E"/>
<stop offset="0.0117188" stop-color="#AC581E"/>
<stop offset="0.015625" stop-color="#AE5B1E"/>
<stop offset="0.0195312" stop-color="#B05E1E"/>
<stop offset="0.0234375" stop-color="#B1611E"/>
<stop offset="0.0273438" stop-color="#B3651D"/>
<stop offset="0.03125" stop-color="#B5691D"/>
<stop offset="0.0351562" stop-color="#B66C1D"/>
<stop offset="0.0390625" stop-color="#B86F1D"/>
<stop offset="0.0429688" stop-color="#BA721D"/>
<stop offset="0.046875" stop-color="#BC761C"/>
<stop offset="0.0507813" stop-color="#BD791C"/>
<stop offset="0.0546875" stop-color="#BF7D1C"/>
<stop offset="0.0585937" stop-color="#C1801C"/>
<stop offset="0.0625" stop-color="#C3831D"/>
<stop offset="0.0664062" stop-color="#C5861F"/>
<stop offset="0.0703125" stop-color="#C68920"/>
<stop offset="0.0742187" stop-color="#C88C22"/>
<stop offset="0.078125" stop-color="#C99024"/>
<stop offset="0.0820312" stop-color="#CB9325"/>
<stop offset="0.0859375" stop-color="#CC9625"/>
<stop offset="0.0898438" stop-color="#CF9A27"/>
<stop offset="0.09375" stop-color="#D19E28"/>
<stop offset="0.0976562" stop-color="#D3A029"/>
<stop offset="0.101562" stop-color="#D4A32A"/>
<stop offset="0.105469" stop-color="#D6A72B"/>
<stop offset="0.109375" stop-color="#D8AA2D"/>
<stop offset="0.113281" stop-color="#D9AD2E"/>
<stop offset="0.117188" stop-color="#DBB030"/>
<stop offset="0.121094" stop-color="#DCB332"/>
<stop offset="0.125" stop-color="#DEB633"/>
<stop offset="0.128906" stop-color="#E0B935"/>
<stop offset="0.132812" stop-color="#E1BC36"/>
<stop offset="0.136719" stop-color="#E3C037"/>
<stop offset="0.140625" stop-color="#E6C338"/>
<stop offset="0.144531" stop-color="#E7C73A"/>
<stop offset="0.148438" stop-color="#E9CB3B"/>
<stop offset="0.152344" stop-color="#EBCE3C"/>
<stop offset="0.15625" stop-color="#EDD23D"/>
<stop offset="0.160156" stop-color="#EFD53E"/>
<stop offset="0.164063" stop-color="#F1D83F"/>
<stop offset="0.167969" stop-color="#F2DC40"/>
<stop offset="0.171875" stop-color="#F4DF42"/>
<stop offset="0.175781" stop-color="#F5E244"/>
<stop offset="0.179688" stop-color="#F7E446"/>
<stop offset="0.183594" stop-color="#F4E043"/>
<stop offset="0.1875" stop-color="#F2DC40"/>
<stop offset="0.191406" stop-color="#F0D73E"/>
<stop offset="0.195313" stop-color="#EDD23D"/>
<stop offset="0.199219" stop-color="#EBCD3B"/>
<stop offset="0.203125" stop-color="#E8C83A"/>
<stop offset="0.207031" stop-color="#E5C338"/>
<stop offset="0.210938" stop-color="#E2BE36"/>
<stop offset="0.214844" stop-color="#E0BA35"/>
<stop offset="0.21875" stop-color="#DDB633"/>
<stop offset="0.222656" stop-color="#DCB231"/>
<stop offset="0.226563" stop-color="#DAAE2F"/>
<stop offset="0.230469" stop-color="#D7AA2D"/>
<stop offset="0.234375" stop-color="#D5A52A"/>
<stop offset="0.238281" stop-color="#D3A229"/>
<stop offset="0.242188" stop-color="#D29E28"/>
<stop offset="0.246094" stop-color="#CF9A27"/>
<stop offset="0.25" stop-color="#CD9725"/>
<stop offset="0.253906" stop-color="#CB9325"/>
<stop offset="0.257813" stop-color="#C98E24"/>
<stop offset="0.261719" stop-color="#C78B22"/>
<stop offset="0.265625" stop-color="#C6881F"/>
<stop offset="0.269531" stop-color="#C4851E"/>
<stop offset="0.273438" stop-color="#C2811C"/>
<stop offset="0.277344" stop-color="#C07E1C"/>
<stop offset="0.28125" stop-color="#BE7B1C"/>
<stop offset="0.285156" stop-color="#BC771C"/>
<stop offset="0.289062" stop-color="#BB731C"/>
<stop offset="0.292969" stop-color="#B9711D"/>
<stop offset="0.296875" stop-color="#B76E1D"/>
<stop offset="0.300781" stop-color="#B66B1D"/>
<stop offset="0.304688" stop-color="#B4681D"/>
<stop offset="0.308594" stop-color="#B3651D"/>
<stop offset="0.3125" stop-color="#B1621E"/>
<stop offset="0.316406" stop-color="#B05F1E"/>
<stop offset="0.320313" stop-color="#AF5D1E"/>
<stop offset="0.324219" stop-color="#AD5A1E"/>
<stop offset="0.328125" stop-color="#AC581E"/>
<stop offset="0.332031" stop-color="#AB561E"/>
<stop offset="0.335938" stop-color="#A9531E"/>
<stop offset="0.339844" stop-color="#A8511E"/>
<stop offset="0.34375" stop-color="#A64F1E"/>
<stop offset="0.347656" stop-color="#A54E1E"/>
<stop offset="0.351563" stop-color="#A44C1E"/>
<stop offset="0.355469" stop-color="#A34A1E"/>
<stop offset="0.359375" stop-color="#A3481E"/>
<stop offset="0.363281" stop-color="#A2471E"/>
<stop offset="0.367188" stop-color="#A1451E"/>
<stop offset="0.371094" stop-color="#A0441E"/>
<stop offset="0.375" stop-color="#9F431E"/>
<stop offset="0.378906" stop-color="#9F421E"/>
<stop offset="0.382813" stop-color="#9E411E"/>
<stop offset="0.386719" stop-color="#9D401E"/>
<stop offset="0.390625" stop-color="#9D3F1E"/>
<stop offset="0.394531" stop-color="#9C3E1E"/>
<stop offset="0.398438" stop-color="#9C3E1E"/>
<stop offset="0.402344" stop-color="#9B3D1E"/>
<stop offset="0.40625" stop-color="#9B3D1E"/>
<stop offset="0.410156" stop-color="#9D3F1E"/>
<stop offset="0.414063" stop-color="#9F411E"/>
<stop offset="0.417969" stop-color="#A1451E"/>
<stop offset="0.421875" stop-color="#A4491E"/>
<stop offset="0.425781" stop-color="#A74E1E"/>
<stop offset="0.429688" stop-color="#AA531E"/>
<stop offset="0.433594" stop-color="#AD571E"/>
<stop offset="0.4375" stop-color="#B05C1E"/>
<stop offset="0.441406" stop-color="#B3611D"/>
<stop offset="0.445312" stop-color="#B6661D"/>
<stop offset="0.449219" stop-color="#B96B1D"/>
<stop offset="0.453125" stop-color="#BC6F1D"/>
<stop offset="0.457031" stop-color="#BE741C"/>
<stop offset="0.460938" stop-color="#C1791C"/>
<stop offset="0.464844" stop-color="#C47E1D"/>
<stop offset="0.46875" stop-color="#C7841E"/>
<stop offset="0.472656" stop-color="#CA8820"/>
<stop offset="0.476562" stop-color="#CD8D23"/>
<stop offset="0.480469" stop-color="#D09225"/>
<stop offset="0.484375" stop-color="#D29726"/>
<stop offset="0.488281" stop-color="#D59C28"/>
<stop offset="0.492188" stop-color="#D8A029"/>
<stop offset="0.496094" stop-color="#DBA52C"/>
<stop offset="0.5" stop-color="#DEAA2E"/>
<stop offset="0.503906" stop-color="#E1AE30"/>
<stop offset="0.507812" stop-color="#E3B333"/>
<stop offset="0.511719" stop-color="#E6B734"/>
<stop offset="0.515625" stop-color="#E9BC35"/>
<stop offset="0.519531" stop-color="#EDC238"/>
<stop offset="0.523438" stop-color="#F1C83A"/>
<stop offset="0.527344" stop-color="#F3CC3B"/>
<stop offset="0.53125" stop-color="#F5D13D"/>
<stop offset="0.535156" stop-color="#F6D13E"/>
<stop offset="0.539062" stop-color="#F6D23E"/>
<stop offset="0.542969" stop-color="#F5D13D"/>
<stop offset="0.546875" stop-color="#F5D03D"/>
<stop offset="0.550781" stop-color="#F4CF3D"/>
<stop offset="0.554687" stop-color="#F4CD3C"/>
<stop offset="0.558594" stop-color="#F3CC3C"/>
<stop offset="0.5625" stop-color="#F3CB3B"/>
<stop offset="0.566406" stop-color="#F2CA3B"/>
<stop offset="0.570313" stop-color="#F1C83A"/>
<stop offset="0.574219" stop-color="#F0C739"/>
<stop offset="0.578125" stop-color="#EFC539"/>
<stop offset="0.582031" stop-color="#EEC338"/>
<stop offset="0.585938" stop-color="#EDC138"/>
<stop offset="0.589844" stop-color="#ECC037"/>
<stop offset="0.59375" stop-color="#EBBF37"/>
<stop offset="0.597656" stop-color="#EABE36"/>
<stop offset="0.601562" stop-color="#E9BC35"/>
<stop offset="0.605469" stop-color="#E8BB35"/>
<stop offset="0.609375" stop-color="#E8BA35"/>
<stop offset="0.613281" stop-color="#E7B834"/>
<stop offset="0.617188" stop-color="#E6B734"/>
<stop offset="0.621094" stop-color="#E5B634"/>
<stop offset="0.625" stop-color="#E4B533"/>
<stop offset="0.628906" stop-color="#E3B433"/>
<stop offset="0.632812" stop-color="#E3B332"/>
<stop offset="0.636719" stop-color="#E2B132"/>
<stop offset="0.640625" stop-color="#E1B031"/>
<stop offset="0.644531" stop-color="#E1AF31"/>
<stop offset="0.648438" stop-color="#E0AD30"/>
<stop offset="0.652344" stop-color="#DFAC30"/>
<stop offset="0.65625" stop-color="#DFAB2F"/>
<stop offset="0.660156" stop-color="#DEAA2E"/>
<stop offset="0.664062" stop-color="#DDA92E"/>
<stop offset="0.667969" stop-color="#DDA82D"/>
<stop offset="0.671875" stop-color="#DCA72D"/>
<stop offset="0.675781" stop-color="#DBA62C"/>
<stop offset="0.679687" stop-color="#DAA42B"/>
<stop offset="0.683594" stop-color="#DAA32A"/>
<stop offset="0.6875" stop-color="#D9A22A"/>
<stop offset="0.691406" stop-color="#D8A029"/>
<stop offset="0.695312" stop-color="#D79F29"/>
<stop offset="0.699219" stop-color="#D69E28"/>
<stop offset="0.703125" stop-color="#D69D27"/>
<stop offset="0.707031" stop-color="#D59B27"/>
<stop offset="0.710937" stop-color="#D49A27"/>
<stop offset="0.714844" stop-color="#D39927"/>
<stop offset="0.71875" stop-color="#D39726"/>
<stop offset="0.722656" stop-color="#D29626"/>
<stop offset="0.726562" stop-color="#D19525"/>
<stop offset="0.730469" stop-color="#D09325"/>
<stop offset="0.734375" stop-color="#CF9224"/>
<stop offset="0.738281" stop-color="#CE9124"/>
<stop offset="0.742188" stop-color="#CE9024"/>
<stop offset="0.746094" stop-color="#CD8F24"/>
<stop offset="0.75" stop-color="#CD8E23"/>
<stop offset="0.753906" stop-color="#CD8C23"/>
<stop offset="0.757812" stop-color="#CC8B22"/>
<stop offset="0.761719" stop-color="#CB8A21"/>
<stop offset="0.765625" stop-color="#CB8920"/>
<stop offset="0.769531" stop-color="#CA8720"/>
<stop offset="0.773438" stop-color="#C9861F"/>
<stop offset="0.777344" stop-color="#C8851E"/>
<stop offset="0.78125" stop-color="#C8841E"/>
<stop offset="0.785156" stop-color="#C7831D"/>
<stop offset="0.789062" stop-color="#C6821D"/>
<stop offset="0.792969" stop-color="#C5801C"/>
<stop offset="0.796875" stop-color="#C57F1C"/>
<stop offset="0.800781" stop-color="#C47D1C"/>
<stop offset="0.804687" stop-color="#C37C1B"/>
<stop offset="0.808594" stop-color="#C27B1C"/>
<stop offset="0.8125" stop-color="#C1791C"/>
<stop offset="0.816406" stop-color="#C1781C"/>
<stop offset="0.820312" stop-color="#C0771C"/>
<stop offset="0.824219" stop-color="#BF761C"/>
<stop offset="0.828125" stop-color="#BE741C"/>
<stop offset="0.832031" stop-color="#BE731C"/>
<stop offset="0.835937" stop-color="#BD721C"/>
<stop offset="0.839844" stop-color="#BD711C"/>
<stop offset="0.84375" stop-color="#BC701D"/>
<stop offset="0.847656" stop-color="#BB6F1D"/>
<stop offset="0.851562" stop-color="#BA6E1D"/>
<stop offset="0.855469" stop-color="#BA6C1D"/>
<stop offset="0.859375" stop-color="#B96B1D"/>
<stop offset="0.863281" stop-color="#B86A1D"/>
<stop offset="0.867188" stop-color="#B7691D"/>
<stop offset="0.871094" stop-color="#B7671D"/>
<stop offset="0.875" stop-color="#B6661D"/>
<stop offset="0.878906" stop-color="#B5651D"/>
<stop offset="0.882812" stop-color="#B4641D"/>
<stop offset="0.886719" stop-color="#B4621D"/>
<stop offset="0.890625" stop-color="#B3611E"/>
<stop offset="0.894531" stop-color="#B2601E"/>
<stop offset="0.898438" stop-color="#B25E1E"/>
<stop offset="0.902344" stop-color="#B15D1E"/>
<stop offset="0.90625" stop-color="#B05C1E"/>
<stop offset="0.910156" stop-color="#AF5B1E"/>
<stop offset="0.914062" stop-color="#AF5A1E"/>
<stop offset="0.917969" stop-color="#AE581E"/>
<stop offset="0.921875" stop-color="#AD571E"/>
<stop offset="0.925781" stop-color="#AD561E"/>
<stop offset="0.929688" stop-color="#AC551E"/>
<stop offset="0.933594" stop-color="#AB541E"/>
<stop offset="0.9375" stop-color="#AB531E"/>
<stop offset="0.941406" stop-color="#AA521E"/>
<stop offset="0.945312" stop-color="#A9511E"/>
<stop offset="0.949219" stop-color="#A8501E"/>
<stop offset="0.953125" stop-color="#A74F1E"/>
<stop offset="0.957031" stop-color="#A74E1E"/>
<stop offset="0.960938" stop-color="#A64D1E"/>
<stop offset="0.964844" stop-color="#A54C1E"/>
<stop offset="0.96875" stop-color="#A44B1E"/>
<stop offset="0.972656" stop-color="#A4491E"/>
<stop offset="0.976562" stop-color="#A3481E"/>
<stop offset="0.980469" stop-color="#A3471E"/>
<stop offset="0.984375" stop-color="#A2461E"/>
<stop offset="0.988281" stop-color="#A2451E"/>
<stop offset="0.992187" stop-color="#A1441E"/>
<stop offset="0.996094" stop-color="#A0431E"/>
<stop offset="1" stop-color="#A0421E"/>
</linearGradient>
<radialGradient id="paint2_radial_1_205" cx="0" cy="0" r="1" gradientUnits="userSpaceOnUse" gradientTransform="translate(1747.94 649.073) scale(1891.54 817.309)">
<stop stop-color="#3D3C3E"/>
<stop offset="0.03125" stop-color="#3D3C3D"/>
<stop offset="0.0429688" stop-color="#3C3C3D"/>
<stop offset="0.0546875" stop-color="#3C3C3D"/>
<stop offset="0.0664062" stop-color="#3C3B3C"/>
<stop offset="0.078125" stop-color="#3B3B3C"/>
<stop offset="0.0898438" stop-color="#3B3B3C"/>
<stop offset="0.101562" stop-color="#3B3A3B"/>
<stop offset="0.113281" stop-color="#3B3A3B"/>
<stop offset="0.125" stop-color="#3A3A3B"/>
<stop offset="0.128906" stop-color="#3A393A"/>
<stop offset="0.132812" stop-color="#3A393A"/>
<stop offset="0.136719" stop-color="#3A393A"/>
<stop offset="0.140625" stop-color="#3A393A"/>
<stop offset="0.152344" stop-color="#393839"/>
<stop offset="0.15625" stop-color="#393839"/>
<stop offset="0.160156" stop-color="#393839"/>
<stop offset="0.164062" stop-color="#393839"/>
<stop offset="0.167969" stop-color="#393839"/>
<stop offset="0.171875" stop-color="#383738"/>
<stop offset="0.183594" stop-color="#383738"/>
<stop offset="0.1875" stop-color="#383738"/>
<stop offset="0.191406" stop-color="#383738"/>
<stop offset="0.195312" stop-color="#373737"/>
<stop offset="0.199219" stop-color="#373637"/>
<stop offset="0.203125" stop-color="#373637"/>
<stop offset="0.207031" stop-color="#373637"/>
<stop offset="0.210938" stop-color="#373637"/>
<stop offset="0.214844" stop-color="#363536"/>
<stop offset="0.21875" stop-color="#363536"/>
<stop offset="0.222656" stop-color="#363536"/>
<stop offset="0.226562" stop-color="#363536"/>
<stop offset="0.230469" stop-color="#363535"/>
<stop offset="0.234375" stop-color="#353435"/>
<stop offset="0.246094" stop-color="#353435"/>
<stop offset="0.257812" stop-color="#343334"/>
<stop offset="0.265625" stop-color="#343334"/>
<stop offset="0.273438" stop-color="#333333"/>
<stop offset="0.28125" stop-color="#333233"/>
<stop offset="0.289062" stop-color="#333232"/>
<stop offset="0.296875" stop-color="#323132"/>
<stop offset="0.304688" stop-color="#323131"/>
<stop offset="0.3125" stop-color="#323131"/>
<stop offset="0.320312" stop-color="#313031"/>
<stop offset="0.328125" stop-color="#313030"/>
<stop offset="0.335938" stop-color="#302F30"/>
<stop offset="0.34375" stop-color="#302F2F"/>
<stop offset="0.347656" stop-color="#302F2F"/>
<stop offset="0.351562" stop-color="#302F2F"/>
<stop offset="0.355469" stop-color="#2F2E2E"/>
<stop offset="0.359375" stop-color="#2F2E2E"/>
<stop offset="0.363281" stop-color="#2F2E2E"/>
<stop offset="0.367188" stop-color="#2F2D2E"/>
<stop offset="0.375" stop-color="#2E2D2D"/>
<stop offset="0.382812" stop-color="#2E2C2D"/>
<stop offset="0.390625" stop-color="#2E2C2C"/>
<stop offset="0.398438" stop-color="#2D2C2C"/>
<stop offset="0.40625" stop-color="#2D2B2C"/>
<stop offset="0.410156" stop-color="#2D2B2B"/>
<stop offset="0.414062" stop-color="#2C2B2B"/>
<stop offset="0.417969" stop-color="#2C2B2B"/>
<stop offset="0.421875" stop-color="#2C2A2A"/>
<stop offset="0.425781" stop-color="#2C2A2A"/>
<stop offset="0.429688" stop-color="#2B2A2A"/>
<stop offset="0.4375" stop-color="#2B2929"/>
<stop offset="0.445312" stop-color="#2B2929"/>
<stop offset="0.453125" stop-color="#2A2929"/>
<stop offset="0.457031" stop-color="#2A2828"/>
<stop offset="0.460938" stop-color="#2A2828"/>
<stop offset="0.464844" stop-color="#292828"/>
<stop offset="0.46875" stop-color="#292828"/>
<stop offset="0.472656" stop-color="#292727"/>
<stop offset="0.476562" stop-color="#282727"/>
<stop offset="0.484375" stop-color="#282726"/>
<stop offset="0.492188" stop-color="#282626"/>
<stop offset="0.496094" stop-color="#272626"/>
<stop offset="0.5" stop-color="#272625"/>
<stop offset="0.503906" stop-color="#272625"/>
<stop offset="0.507812" stop-color="#272525"/>
<stop offset="0.511719" stop-color="#272525"/>
<stop offset="0.515625" stop-color="#262525"/>
<stop offset="0.519531" stop-color="#262524"/>
<stop offset="0.523438" stop-color="#262424"/>
<stop offset="0.527344" stop-color="#262424"/>
<stop offset="0.53125" stop-color="#262424"/>
<stop offset="0.535156" stop-color="#252423"/>
<stop offset="0.539062" stop-color="#252423"/>
<stop offset="0.542969" stop-color="#252323"/>
<stop offset="0.546875" stop-color="#252323"/>
<stop offset="0.550781" stop-color="#242322"/>
<stop offset="0.554688" stop-color="#242222"/>
<stop offset="0.558594" stop-color="#242222"/>
<stop offset="0.5625" stop-color="#242222"/>
<stop offset="0.566406" stop-color="#242222"/>
<stop offset="0.570312" stop-color="#232221"/>
<stop offset="0.574219" stop-color="#232121"/>
<stop offset="0.578125" stop-color="#232121"/>
<stop offset="0.582031" stop-color="#222120"/>
<stop offset="0.585938" stop-color="#222120"/>
<stop offset="0.589844" stop-color="#222120"/>
<stop offset="0.59375" stop-color="#222020"/>
<stop offset="0.597656" stop-color="#22201F"/>
<stop offset="0.601562" stop-color="#22201F"/>
<stop offset="0.605469" stop-color="#21201F"/>
<stop offset="0.609375" stop-color="#21201F"/>
<stop offset="0.613281" stop-color="#211F1F"/>
<stop offset="0.617188" stop-color="#211F1F"/>
<stop offset="0.621094" stop-color="#211F1E"/>
<stop offset="0.625" stop-color="#201F1E"/>
<stop offset="0.628906" stop-color="#201E1E"/>
<stop offset="0.632812" stop-color="#201E1D"/>
<stop offset="0.636719" stop-color="#1F1E1D"/>
<stop offset="0.644531" stop-color="#1F1D1D"/>
<stop offset="0.648438" stop-color="#1F1D1D"/>
<stop offset="0.652344" stop-color="#1E1D1C"/>
<stop offset="0.65625" stop-color="#1E1D1C"/>
<stop offset="0.660156" stop-color="#1E1D1C"/>
<stop offset="0.664062" stop-color="#1E1C1C"/>
<stop offset="0.667969" stop-color="#1D1C1B"/>
<stop offset="0.675781" stop-color="#1D1C1B"/>
<stop offset="0.679688" stop-color="#1D1B1B"/>
<stop offset="0.683594" stop-color="#1D1B1A"/>
<stop offset="0.6875" stop-color="#1D1B1A"/>
<stop offset="0.691406" stop-color="#1C1B1A"/>
<stop offset="0.695312" stop-color="#1C1A1A"/>
<stop offset="0.699219" stop-color="#1C1A19"/>
<stop offset="0.707031" stop-color="#1B1A19"/>
<stop offset="0.714844" stop-color="#1B1918"/>
<stop offset="0.722656" stop-color="#1B1918"/>
<stop offset="0.730469" stop-color="#1A1918"/>
<stop offset="0.746094" stop-color="#1A1817"/>
<stop offset="0.761719" stop-color="#1A1817"/>
<stop offset="0.765625" stop-color="#191817"/>
<stop offset="0.769531" stop-color="#191817"/>
<stop offset="0.773438" stop-color="#191716"/>
<stop offset="0.777344" stop-color="#191716"/>
<stop offset="0.78125" stop-color="#191716"/>
<stop offset="0.785156" stop-color="#191716"/>
<stop offset="0.789062" stop-color="#181716"/>
<stop offset="0.792969" stop-color="#181716"/>
<stop offset="0.796875" stop-color="#181615"/>
<stop offset="0.800781" stop-color="#181615"/>
<stop offset="0.804688" stop-color="#181615"/>
<stop offset="0.808594" stop-color="#171615"/>
<stop offset="0.8125" stop-color="#171615"/>
<stop offset="0.816406" stop-color="#171614"/>
<stop offset="0.824219" stop-color="#171514"/>
<stop offset="0.832031" stop-color="#161514"/>
<stop offset="0.839844" stop-color="#161413"/>
<stop offset="0.847656" stop-color="#161413"/>
<stop offset="0.855469" stop-color="#151412"/>
<stop offset="0.863281" stop-color="#151312"/>
<stop offset="0.871094" stop-color="#151312"/>
<stop offset="0.878906" stop-color="#141311"/>
<stop offset="0.890625" stop-color="#141311"/>
<stop offset="0.894531" stop-color="#141211"/>
<stop offset="0.898438" stop-color="#141211"/>
<stop offset="0.902344" stop-color="#131211"/>
<stop offset="0.914062" stop-color="#131210"/>
<stop offset="0.921875" stop-color="#131210"/>
<stop offset="0.929688" stop-color="#131110"/>
<stop offset="0.9375" stop-color="#12110F"/>
<stop offset="0.945312" stop-color="#12110F"/>
<stop offset="0.949219" stop-color="#12100F"/>
<stop offset="0.960938" stop-color="#12100E"/>
<stop offset="0.96875" stop-color="#11100E"/>
<stop offset="0.976562" stop-color="#11100E"/>
<stop offset="0.980469" stop-color="#110F0E"/>
<stop offset="0.988281" stop-color="#100F0D"/>
<stop offset="0.992188" stop-color="#100F0D"/>
<stop offset="1" stop-color="#100F0D"/>
</radialGradient>
</defs>
</svg>
