<svg xmlns="http://www.w3.org/2000/svg" width="197.873" height="55" viewBox="0 0 197.873 55">
  <defs>
    <style>
      .cls-1 {
        fill: #ee7c0c;
      }

      .cls-2, .cls-3 {
        fill: #fff;
      }

      .cls-2 {
        stroke: #000;
        stroke-miterlimit: 10;
        stroke-width: 2.687px;
      }
    </style>
  </defs>
  <g id="Group_586" data-name="Group 586" transform="translate(-154.961 -223.657)">
    <g id="Group_572" data-name="Group 572" transform="translate(206.379 266.354)">
      <path id="Path_2074" data-name="Path 2074" d="M293.167,339.275h1.305v3.735l3.533-3.735h1.6l-3.087,3.193,3.225,4.233h-1.581l-2.536-3.342-1.157,1.188V346.7h-1.305Z" transform="translate(-293.167 -338.957)"/>
      <path id="Path_2075" data-name="Path 2075" d="M315.78,338.589h1.379v1.22H315.78Zm.053,2.08h1.284v5.6h-1.284Z" transform="translate(-307.367 -338.526)"/>
      <path id="Path_2076" data-name="Path 2076" d="M325.673,345.636v-2.95h-.711v-1.1h.711v-1.539h1.284v1.539h1.506v1.1h-1.506v2.748a.611.611,0,0,0,.689.7,1.721,1.721,0,0,0,.8-.191v1.051a2.246,2.246,0,0,1-1.156.287A1.436,1.436,0,0,1,325.673,345.636Z" transform="translate(-313.133 -339.439)"/>
      <path id="Path_2077" data-name="Path 2077" d="M342.915,349.639v-.689a2.264,2.264,0,0,1-1.814.806,1.793,1.793,0,0,1-1.995-1.729v-.021c0-1.241.965-1.836,2.271-1.836a4.72,4.72,0,0,1,1.549.234V346.3c0-.775-.488-1.2-1.379-1.2a3.9,3.9,0,0,0-1.6.35l-.35-1.029a4.806,4.806,0,0,1,2.133-.467,2.162,2.162,0,0,1,2.462,2.366v3.321Zm.032-2.345a3.669,3.669,0,0,0-1.284-.223c-.807,0-1.284.329-1.284.871v.021c0,.531.477.828,1.082.828.849,0,1.486-.478,1.486-1.178Z" transform="translate(-322.015 -341.893)"/>
      <path id="Path_2078" data-name="Path 2078" d="M360.436,345.294v.87h-1.284v-7.745h1.284V341.5a2.238,2.238,0,0,1,1.9-1.051,2.688,2.688,0,0,1,2.61,2.907v.022a2.682,2.682,0,0,1-2.61,2.907A2.282,2.282,0,0,1,360.436,345.294Zm3.2-1.92v-.022a1.659,1.659,0,0,0-1.6-1.793,1.689,1.689,0,0,0-1.634,1.793v.022a1.682,1.682,0,0,0,1.634,1.793A1.64,1.64,0,0,0,363.64,343.374Z" transform="translate(-334.603 -338.419)"/>
      <path id="Path_2079" data-name="Path 2079" d="M380.738,344.18h1.284v5.6h-1.284Z" transform="translate(-348.158 -342.037)"/>
      <path id="Path_2080" data-name="Path 2080" d="M390.976,343.982h1.284v.87a2.016,2.016,0,0,1,1.75-.987,1.924,1.924,0,0,1,2,2.154v3.565h-1.284V346.4c0-.87-.435-1.369-1.2-1.369a1.247,1.247,0,0,0-1.262,1.39v3.162h-1.284Z" transform="translate(-354.587 -341.839)"/>
      <path id="Path_2081" data-name="Path 2081" d="M416.722,345.636v-2.95h-.711v-1.1h.711v-1.539h1.284v1.539h1.506v1.1h-1.506v2.748a.611.611,0,0,0,.689.7,1.721,1.721,0,0,0,.8-.191v1.051a2.246,2.246,0,0,1-1.156.287A1.436,1.436,0,0,1,416.722,345.636Z" transform="translate(-370.308 -339.439)"/>
      <path id="Path_2082" data-name="Path 2082" d="M433.964,349.639v-.689a2.264,2.264,0,0,1-1.814.806,1.793,1.793,0,0,1-1.995-1.729v-.021c0-1.241.965-1.836,2.271-1.836a4.72,4.72,0,0,1,1.549.234V346.3c0-.775-.488-1.2-1.379-1.2a3.9,3.9,0,0,0-1.6.35l-.35-1.029a4.806,4.806,0,0,1,2.133-.467,2.162,2.162,0,0,1,2.462,2.366v3.321Zm.032-2.345a3.669,3.669,0,0,0-1.284-.223c-.807,0-1.284.329-1.284.871v.021c0,.531.477.828,1.082.828.849,0,1.486-.478,1.486-1.178Z" transform="translate(-379.19 -341.893)"/>
      <path id="Path_2083" data-name="Path 2083" d="M450.2,343.982h1.284v.849a2.007,2.007,0,0,1,1.708-.966,1.761,1.761,0,0,1,1.666.987,2.288,2.288,0,0,1,1.9-.987,1.883,1.883,0,0,1,1.963,2.143v3.576h-1.284V346.4c0-.891-.414-1.369-1.135-1.369-.7,0-1.2.488-1.2,1.39v3.162h-1.284V346.39c0-.87-.424-1.358-1.135-1.358s-1.2.531-1.2,1.4v3.151H450.2Z" transform="translate(-391.778 -341.839)"/>
      <path id="Path_2084" data-name="Path 2084" d="M490.908,349.639v-.689a2.264,2.264,0,0,1-1.814.806,1.793,1.793,0,0,1-1.995-1.729v-.021c0-1.241.965-1.836,2.271-1.836a4.72,4.72,0,0,1,1.549.234V346.3c0-.775-.488-1.2-1.379-1.2a3.9,3.9,0,0,0-1.6.35l-.35-1.029a4.806,4.806,0,0,1,2.133-.467,2.162,2.162,0,0,1,2.462,2.366v3.321Zm.032-2.345a3.669,3.669,0,0,0-1.284-.223c-.807,0-1.284.329-1.284.871v.021c0,.531.477.828,1.082.828.849,0,1.486-.478,1.486-1.178Z" transform="translate(-414.948 -341.893)"/>
      <path id="Path_2085" data-name="Path 2085" d="M506.375,343.374v-.022a2.674,2.674,0,0,1,2.6-2.907,2.319,2.319,0,0,1,1.91.987v-3.013h1.284v7.745h-1.284v-.933a2.243,2.243,0,0,1-1.91,1.05A2.686,2.686,0,0,1,506.375,343.374Zm4.53,0v-.022a1.681,1.681,0,0,0-1.623-1.793,1.642,1.642,0,0,0-1.613,1.793v.022a1.667,1.667,0,0,0,1.613,1.793A1.687,1.687,0,0,0,510.905,343.374Z" transform="translate(-427.053 -338.419)"/>
      <path id="Path_2086" data-name="Path 2086" d="M528.532,344h1.284v1.262a1.986,1.986,0,0,1,1.984-1.369v1.358h-.074c-1.125,0-1.91.732-1.91,2.217V349.6h-1.284Z" transform="translate(-440.966 -341.853)"/>
      <path id="Path_2087" data-name="Path 2087" d="M541.249,346.8v-.021a2.781,2.781,0,0,1,2.737-2.918,2.709,2.709,0,0,1,2.685,3.014c0,.117-.01.234-.022.361h-4.116a1.564,1.564,0,0,0,1.612,1.422,2.034,2.034,0,0,0,1.517-.669l.754.669a2.835,2.835,0,0,1-2.292,1.051A2.8,2.8,0,0,1,541.249,346.8Zm4.149-.414a1.454,1.454,0,0,0-1.422-1.475,1.517,1.517,0,0,0-1.454,1.475Z" transform="translate(-448.952 -341.839)"/>
      <path id="Path_2088" data-name="Path 2088" d="M560.355,348.888l.573-.87a3.141,3.141,0,0,0,1.836.689c.551,0,.87-.233.87-.6v-.021c0-.435-.594-.583-1.252-.785-.828-.233-1.751-.573-1.751-1.644v-.021a1.787,1.787,0,0,1,1.995-1.708,3.882,3.882,0,0,1,2.059.637l-.509.912a3.253,3.253,0,0,0-1.581-.53c-.5,0-.785.233-.785.562v.021c0,.4.605.573,1.263.785.817.255,1.74.626,1.74,1.634v.021c0,1.178-.913,1.762-2.08,1.762A3.937,3.937,0,0,1,560.355,348.888Z" transform="translate(-460.95 -341.875)"/>
      <path id="Path_2089" data-name="Path 2089" d="M578.176,338.589h1.38v1.22h-1.38Zm.053,2.08h1.284v5.6h-1.284Z" transform="translate(-472.141 -338.526)"/>
    </g>
    <g id="Group_573" data-name="Group 573" transform="translate(203.689 238.719)">
      <path id="Path_2090" data-name="Path 2090" d="M293.746,273.786v6.01c0,1.46,1.256,1.6,3.5,1.46v4.618c-6.655.679-8.591-1.324-8.591-6.078v-6.01h-2.717V268.9h2.717V265.67l5.094-1.528V268.9h3.5v4.89Z" transform="translate(-285.936 -264.142)"/>
      <path id="Path_2091" data-name="Path 2091" d="M339.159,276.117V293.1h-5.094v-1.6a6.379,6.379,0,0,1-5.06,2.071c-4.448,0-8.116-3.905-8.116-8.965s3.668-8.965,8.116-8.965a6.377,6.377,0,0,1,5.06,2.072v-1.6Zm-5.094,8.489a4.042,4.042,0,1,0-4.041,4.143A3.878,3.878,0,0,0,334.066,284.607Z" transform="translate(-307.886 -271.363)"/>
      <path id="Path_2092" data-name="Path 2092" d="M403.673,282.671V293.1H398.58v-9.983c0-1.7-.815-2.784-2.445-2.784-1.7,0-2.649,1.188-2.649,3.192V293.1h-5.094v-9.983c0-1.7-.815-2.784-2.445-2.784-1.7,0-2.649,1.188-2.649,3.192V293.1H378.2V276.117H383.3v1.562a5.212,5.212,0,0,1,4.55-2.038,5.053,5.053,0,0,1,4.449,2.241,5.592,5.592,0,0,1,4.924-2.241C401.126,275.642,403.673,278.427,403.673,282.671Z" transform="translate(-343.877 -271.363)"/>
    </g>
    <g id="Group_574" data-name="Group 574" transform="translate(266.282 236.682)">
      <path id="Path_2093" data-name="Path 2093" class="cls-1" d="M472.446,276.117V293.1h-5.094v-1.6a6.379,6.379,0,0,1-5.06,2.071c-4.448,0-8.115-3.905-8.115-8.965s3.667-8.965,8.115-8.965a6.377,6.377,0,0,1,5.06,2.072v-1.6Zm-5.094,8.489a4.042,4.042,0,1,0-4.041,4.143A3.878,3.878,0,0,0,467.352,284.607Z" transform="translate(-454.177 -269.326)"/>
      <path id="Path_2094" data-name="Path 2094" class="cls-1" d="M527.479,258.665v23.77h-5.094v-1.6a6.379,6.379,0,0,1-5.06,2.071c-4.448,0-8.116-3.905-8.116-8.965s3.668-8.965,8.116-8.965a6.377,6.377,0,0,1,5.06,2.072v-8.388Zm-5.094,15.281a4.042,4.042,0,1,0-4.041,4.143A3.878,3.878,0,0,0,522.385,273.946Z" transform="translate(-488.735 -258.665)"/>
      <path id="Path_2095" data-name="Path 2095" class="cls-1" d="M576.712,276.008v5.773c-2.105-.34-5.094.509-5.094,3.871v7.674h-5.094V276.347h5.094v3.022A5.1,5.1,0,0,1,576.712,276.008Z" transform="translate(-524.727 -269.556)"/>
      <path id="Path_2096" data-name="Path 2096" class="cls-1" d="M605.661,289.021a4.433,4.433,0,0,0,3.26-1.291L613,290.074a8.616,8.616,0,0,1-7.4,3.5c-5.807,0-9.406-3.905-9.406-8.965a8.705,8.705,0,0,1,9.032-8.965c4.958,0,8.625,3.837,8.625,8.965a9.876,9.876,0,0,1-.2,2.038H601.586C602.232,288.41,603.793,289.021,605.661,289.021Zm3.124-6.181a3.825,3.825,0,0,0-7.3,0Z" transform="translate(-543.353 -269.326)"/>
      <path id="Path_2097" data-name="Path 2097" class="cls-1" d="M662.572,288c0,3.905-3.4,5.569-7.063,5.569-3.4,0-5.977-1.291-7.3-4.041l4.414-2.513a2.788,2.788,0,0,0,2.887,2c1.222,0,1.833-.374,1.833-1.053,0-1.868-8.354-.883-8.354-6.757,0-3.7,3.124-5.569,6.656-5.569a7.429,7.429,0,0,1,6.622,3.633l-4.347,2.344a2.465,2.465,0,0,0-2.275-1.494c-.883,0-1.426.339-1.426.951C654.218,283.011,662.572,281.72,662.572,288Z" transform="translate(-576.02 -269.326)"/>
    </g>
    <path id="Path_2098" data-name="Path 2098" d="M195.26,253.982a22.36,22.36,0,0,0-.387-2.285c-.031-.142-.064-.285-.1-.425q-.106-.373-.222-.743c-.1-.314-.189-.631-.305-.938-.15-.4-.314-.789-.487-1.178s-.364-.805-.572-1.194q-.348-.65-.745-1.272c-.282-.443-.578-.878-.891-1.3a18.987,18.987,0,0,0-3.354-3.447c-.437-.341-.881-.676-1.345-.98-.5-.331-1.029-.632-1.555-.929-.326-.184-.668-.339-1.007-.5q-.453-.212-.916-.4c-.25-.1-.5-.2-.761-.285q-.48-.161-.968-.3c-.4-.112-.8-.224-1.2-.315-.371-.083-.745-.156-1.121-.2-.7-.089-1.411-.179-2.119-.224-.575-.036-1.155-.021-1.732,0-.434.014-.869.055-1.3.109-.506.063-1.009.146-1.511.233-.308.054-.614.123-.917.2-.371.1-.74.2-1.106.316-.3.09-.59.183-.877.294q-.594.23-1.175.493c-.4.182-.8.368-1.191.577-.429.231-.844.487-1.26.741a16.417,16.417,0,0,0-1.9,1.378,17.675,17.675,0,0,0-2.466,2.452c-.445.546-.864,1.115-1.263,1.7-.318.462-.6.951-.878,1.44-.2.347-.373.708-.539,1.072-.2.443-.4.89-.572,1.345-.147.38-.266.772-.385,1.162-.114.375-.231.75-.314,1.133-.118.543-.209,1.091-.305,1.638a20.721,20.721,0,0,0-.213,2.868c.013.306.023.666.046,1.025.034.53.073,1.06.119,1.589.023.262.061.523.1.784.074.454.152.906.238,1.358q.089.474.2.942c.1.393.2.784.31,1.174.094.342.187.684.3,1.021.125.388.263.773.4,1.156.183.5.362,1,.566,1.483q.354.847.752,1.676c.292.613.591,1.224.914,1.821q.547,1.011,1.145,1.995c.421.69.856,1.373,1.316,2.038q.81,1.174,1.675,2.309c.523.688,1.061,1.366,1.624,2.021q1.123,1.306,2.3,2.569,1.75,1.882,3.675,3.587c.708.624,1.439,1.222,2.167,1.822a1.806,1.806,0,0,0,1.052.481,1.505,1.505,0,0,0,1.075-.291c.656-.531,1.313-1.06,1.945-1.618.8-.7,1.575-1.423,2.344-2.153q1.823-1.731,3.466-3.634,1.034-1.192,2.01-2.434c.561-.711,1.094-1.443,1.62-2.179.415-.58.807-1.177,1.2-1.775.288-.444.559-.9.827-1.356.247-.42.483-.846.717-1.274.2-.369.4-.74.588-1.116.2-.4.391-.8.577-1.205.169-.367.33-.738.487-1.11.132-.315.255-.634.379-.952.107-.276.215-.551.313-.83.1-.3.2-.6.3-.9.108-.338.22-.674.314-1.015.109-.394.208-.791.3-1.19.11-.475.223-.951.31-1.432s.142-.967.217-1.45a20.174,20.174,0,0,0,.195-2.589A19.38,19.38,0,0,0,195.26,253.982Zm-1.552,1.7a16.666,16.666,0,0,1-.177,2.243c-.068.419-.118.84-.2,1.257s-.182.829-.283,1.241c-.084.345-.174.689-.274,1.031-.087.3-.189.587-.287.88-.088.262-.175.523-.271.782-.089.242-.188.481-.285.72-.113.276-.225.552-.346.826-.143.323-.29.644-.444.962-.17.351-.344.7-.527,1.045-.172.326-.352.647-.536.967-.214.371-.429.74-.655,1.1-.244.4-.492.79-.755,1.175-.354.519-.712,1.035-1.091,1.538-.48.638-.967,1.273-1.478,1.889q-.892,1.073-1.834,2.109-1.5,1.645-3.163,3.149-1.053.95-2.139,1.866c-.577.484-1.177.942-1.775,1.4a1.427,1.427,0,0,1-.981.253,1.688,1.688,0,0,1-.96-.417c-.664-.52-1.332-1.038-1.977-1.579q-1.76-1.473-3.354-3.108-1.07-1.093-2.1-2.226c-.514-.568-1-1.155-1.482-1.751q-.788-.984-1.529-2c-.419-.576-.816-1.168-1.2-1.766-.364-.567-.712-1.144-1.044-1.729-.295-.518-.567-1.047-.834-1.578-.24-.479-.47-.963-.686-1.452-.186-.423-.349-.855-.516-1.285-.129-.332-.254-.665-.368-1-.1-.292-.184-.589-.27-.885-.1-.338-.195-.676-.283-1.017-.07-.27-.132-.543-.187-.816-.078-.391-.149-.784-.217-1.176-.039-.225-.074-.452-.094-.679-.042-.459-.077-.918-.108-1.377-.021-.311-.03-.623-.042-.888a17.108,17.108,0,0,1,.194-2.485c.088-.474.171-.949.279-1.419.076-.331.182-.657.286-.981s.218-.677.352-1.007c.16-.394.337-.781.522-1.165.152-.315.312-.628.492-.929.254-.423.51-.847.8-1.247.364-.5.747-1,1.153-1.469a15.734,15.734,0,0,1,2.25-2.125,14.985,14.985,0,0,1,1.738-1.194c.379-.22.759-.441,1.15-.641.354-.182.72-.343,1.087-.5s.711-.294,1.072-.427c.262-.1.531-.177.8-.255.335-.1.671-.191,1.01-.274.276-.068.555-.128.837-.174.458-.076.917-.147,1.379-.2.394-.047.79-.082,1.186-.094.526-.016,1.055-.029,1.58,0,.646.039,1.291.118,1.934.194.343.041.685.1,1.023.176.367.079.731.176,1.093.273q.445.119.883.259.352.112.694.247.422.165.836.348c.31.137.622.272.919.431.48.257.959.518,1.419.8.423.263.828.554,1.227.849a16,16,0,0,1,1.642,1.412,15.752,15.752,0,0,1,1.418,1.574c.285.365.555.742.813,1.125q.362.539.68,1.1c.19.337.358.686.522,1.035s.307.676.444,1.02c.106.266.189.541.279.813q.106.321.2.644c.036.122.067.245.1.369a18.417,18.417,0,0,1,.353,1.98A15.955,15.955,0,0,1,193.708,255.681Z" transform="translate(-1.465 -8.406)"/>
    <path id="Path_2099" data-name="Path 2099" class="cls-1" d="M161.771,258.311c.012.265.021.577.042.888.031.459.066.918.108,1.377.021.227.056.454.095.679.068.393.139.785.217,1.176.055.273.117.546.187.816.088.341.185.679.283,1.017.086.3.171.593.27.885.115.336.24.67.368,1,.167.43.33.862.516,1.285.216.489.446.973.686,1.452.267.531.539,1.061.834,1.578.333.584.68,1.162,1.044,1.729.385.6.782,1.19,1.2,1.766q.739,1.017,1.529,2c.477.6.968,1.183,1.482,1.751q1.024,1.132,2.1,2.226,1.6,1.631,3.354,3.108c.646.541,1.313,1.059,1.977,1.579a1.688,1.688,0,0,0,.96.417,1.427,1.427,0,0,0,.981-.253c.6-.46,1.2-.919,1.775-1.4q1.088-.913,2.139-1.866,1.663-1.5,3.163-3.149.943-1.033,1.834-2.109c.512-.616,1-1.25,1.479-1.889.378-.5.737-1.019,1.091-1.538.263-.385.51-.779.755-1.175.225-.364.441-.734.655-1.1.184-.32.365-.641.536-.967.182-.345.357-.694.527-1.045.154-.318.3-.639.444-.962.121-.273.233-.549.346-.826.1-.239.2-.478.285-.72.1-.259.183-.521.271-.782.1-.292.2-.584.287-.88.1-.341.19-.686.274-1.031.1-.412.2-.825.283-1.241s.13-.838.2-1.257a16.666,16.666,0,0,0,.177-2.243,15.962,15.962,0,0,0-.1-2.226,18.422,18.422,0,0,0-.353-1.98c-.028-.124-.059-.247-.1-.369q-.1-.323-.2-.644c-.09-.272-.173-.547-.279-.813-.137-.344-.286-.684-.444-1.02s-.332-.7-.522-1.035q-.318-.563-.68-1.1c-.257-.383-.528-.76-.813-1.125a15.751,15.751,0,0,0-1.418-1.574,16,16,0,0,0-1.642-1.412c-.4-.3-.8-.586-1.227-.849-.46-.287-.939-.548-1.419-.8-.3-.159-.61-.294-.919-.431q-.413-.184-.836-.348-.342-.134-.694-.247-.438-.139-.883-.259c-.362-.1-.726-.194-1.093-.273-.338-.072-.68-.135-1.023-.176-.643-.077-1.288-.155-1.934-.194-.525-.032-1.054-.018-1.58,0-.4.012-.793.047-1.186.094-.461.055-.921.126-1.379.2-.281.047-.561.106-.837.174-.339.083-.675.177-1.01.274-.269.078-.538.159-.8.255q-.542.2-1.072.427c-.367.157-.733.319-1.087.5-.391.2-.771.422-1.15.641a14.949,14.949,0,0,0-1.738,1.194,15.716,15.716,0,0,0-2.25,2.125c-.406.473-.788.966-1.153,1.469-.291.4-.547.824-.8,1.247-.18.3-.34.614-.492.929-.185.384-.362.772-.522,1.165-.134.33-.243.669-.352,1.007s-.211.65-.286.981c-.108.47-.191.945-.279,1.419A17.106,17.106,0,0,0,161.771,258.311Z" transform="translate(-4.276 -11.332)"/>
    <path id="Path_2100" data-name="Path 2100" d="M197.349,295.206a.343.343,0,0,0-.393-.18,49.447,49.447,0,0,1-31.39,0,.344.344,0,0,0-.3.6c2.508,1.993,11.044,3.375,15.994,3.375s13.486-1.382,15.994-3.375A.344.344,0,0,0,197.349,295.206Z" transform="translate(-6.39 -44.809)"/>
    <path id="Path_2101" data-name="Path 2101" class="cls-2" d="M208.434,249.789h-.019" transform="translate(-33.567 -16.41)"/>
    <g id="Group_577" data-name="Group 577" transform="translate(161.942 249.615)">
      <g id="Group_575" data-name="Group 575" transform="translate(0 0)">
        <path id="Path_2102" data-name="Path 2102" d="M173.9,294.513a1.054,1.054,0,0,1,.472-.788,2.267,2.267,0,0,1,1.2-.3,1.948,1.948,0,0,1,.794.106c.861.356,1.162,1.846,1.3,2.666a3.1,3.1,0,0,0,.433,1.414c.4.537.811,1.06,1.188,1.612a18.73,18.73,0,0,1,1.109,1.517,2.464,2.464,0,0,1,.27.889.82.82,0,0,1-.186.757c-.247.2-.548.145-.62.523a2.292,2.292,0,0,0,.109.8,1.145,1.145,0,0,1-.052.534.679.679,0,0,1-.27.413.612.612,0,0,1-.282.052c-.382,0-.534-.225-.693-.542-.046-.091-.078-.144-.185-.132a.251.251,0,0,0-.21.138,1.57,1.57,0,0,0-.011.416c-.035.369-.017.683-.362.9a.726.726,0,0,1-.528.094.675.675,0,0,1-.592-.472c-.057-.159-.085-.5-.262-.579-.292-.125-.306.395-.417.553-.238.34-.777.164-.992-.112a4.276,4.276,0,0,1-.395-1.484.3.3,0,0,0-.1-.175c-.1-.073-.237-.013-.36-.008a.525.525,0,0,1-.473-.367,3.782,3.782,0,0,1-.006-1.377c.082-1.172.622-2.325.465-3.512-.128-.97-.193-1.935-.335-2.9A2.347,2.347,0,0,1,173.9,294.513Z" transform="translate(-173.725 -293.428)"/>
        <path id="Path_2103" data-name="Path 2103" class="cls-3" d="M176.276,296.826c.026.281.089.57.119.83.054.459.107.917.164,1.375a6.143,6.143,0,0,1,.058,1.853,5.219,5.219,0,0,0-.222,1.578,1.4,1.4,0,0,0,.645.8,1.874,1.874,0,0,0,.482.2,2.56,2.56,0,0,0,1.644-.09,2.483,2.483,0,0,0,1.053-.849,1.081,1.081,0,0,0-.073-1.276,3.02,3.02,0,0,0-.448-.554,5.272,5.272,0,0,1-.66-.974,7.031,7.031,0,0,1-.746-2.24c-.087-.49-.08-1.594-.709-1.768a1.33,1.33,0,0,0-.785.053.879.879,0,0,0-.291.155.72.72,0,0,0-.223.433A1.926,1.926,0,0,0,176.276,296.826Z" transform="translate(-175.32 -294.84)"/>
      </g>
      <g id="Group_576" data-name="Group 576" transform="translate(19.016 0)">
        <path id="Path_2104" data-name="Path 2104" d="M231.62,294.513a1.054,1.054,0,0,0-.472-.788,2.267,2.267,0,0,0-1.2-.3,1.949,1.949,0,0,0-.795.106c-.861.356-1.162,1.846-1.3,2.666a3.1,3.1,0,0,1-.433,1.414c-.4.537-.811,1.06-1.188,1.612a18.727,18.727,0,0,0-1.109,1.517,2.456,2.456,0,0,0-.27.889.818.818,0,0,0,.186.757c.247.2.548.145.62.523a2.291,2.291,0,0,1-.109.8,1.14,1.14,0,0,0,.052.534.677.677,0,0,0,.27.413.613.613,0,0,0,.282.052c.382,0,.534-.225.693-.542.046-.091.079-.144.185-.132a.251.251,0,0,1,.21.138,1.569,1.569,0,0,1,.011.416c.035.369.017.683.362.9a.726.726,0,0,0,.528.094.675.675,0,0,0,.592-.472c.057-.159.085-.5.262-.579.292-.125.306.395.417.553.238.34.777.164.991-.112a4.276,4.276,0,0,0,.395-1.484.3.3,0,0,1,.1-.175c.1-.073.237-.013.36-.008a.524.524,0,0,0,.473-.367,3.781,3.781,0,0,0,.006-1.377c-.082-1.172-.622-2.325-.465-3.512.128-.97.193-1.935.335-2.9A2.346,2.346,0,0,0,231.62,294.513Z" transform="translate(-224.837 -293.428)"/>
        <path id="Path_2105" data-name="Path 2105" class="cls-3" d="M234.017,296.826c-.026.281-.089.57-.119.83-.054.459-.107.917-.164,1.375a6.142,6.142,0,0,0-.058,1.853,5.22,5.22,0,0,1,.222,1.578,1.4,1.4,0,0,1-.646.8,1.873,1.873,0,0,1-.482.2,2.56,2.56,0,0,1-1.644-.09,2.483,2.483,0,0,1-1.053-.849,1.081,1.081,0,0,1,.073-1.276,3.02,3.02,0,0,1,.448-.554,5.273,5.273,0,0,0,.66-.974,7.031,7.031,0,0,0,.746-2.24c.087-.49.08-1.594.709-1.768a1.33,1.33,0,0,1,.785.053.879.879,0,0,1,.291.155.72.72,0,0,1,.223.433A1.926,1.926,0,0,1,234.017,296.826Z" transform="translate(-228.012 -294.84)"/>
      </g>
    </g>
    <path id="Path_2106" data-name="Path 2106" d="M237.978,250.225" transform="translate(-52.131 -16.683)"/>
    <path id="Path_2107" data-name="Path 2107" class="cls-3" d="M194.894,226.92a2.667,2.667,0,0,0-1.124-1.254,5.564,5.564,0,0,0-2.366-.62,11.554,11.554,0,0,0-6.861,1.5c-2.282,1.377-3.358,3.829-4.834,5.95a5.525,5.525,0,0,1-1.193,1.365c-.8.589-1.845.366-2.778.365h-.132c-.934,0-1.974.224-2.778-.365a5.525,5.525,0,0,1-1.193-1.365c-1.475-2.12-2.551-4.573-4.833-5.95a11.555,11.555,0,0,0-6.861-1.5,5.562,5.562,0,0,0-2.366.62,2.667,2.667,0,0,0-1.124,1.254,1.9,1.9,0,0,0-.145.73c0,.932.8,1.656,1.284,2.394a27.672,27.672,0,0,1,1.636,2.779,18.561,18.561,0,0,0,2.392,4.315c1.112,1.243,3.279,2.477,4.529,3.555h0a4.54,4.54,0,0,0-.126,5.491,6.482,6.482,0,0,0,.689,4.592,13.751,13.751,0,0,0,2.089,2.569,9.438,9.438,0,0,0,1.028.91h0a2.43,2.43,0,0,0-.109.4,2.472,2.472,0,0,0,.186,1.461,2.035,2.035,0,0,0,.865.9,5.114,5.114,0,0,0,1.379.5h0a3.649,3.649,0,0,0,3.483,2.277h.085a3.649,3.649,0,0,0,3.484-2.277h0a5.114,5.114,0,0,0,1.379-.5,2.037,2.037,0,0,0,.865-.9,2.469,2.469,0,0,0,.185-1.461,2.429,2.429,0,0,0-.109-.4h0a9.438,9.438,0,0,0,1.028-.91,13.734,13.734,0,0,0,2.089-2.569,6.482,6.482,0,0,0,.69-4.592,4.54,4.54,0,0,0-.126-5.491l4.528-3.555a18.575,18.575,0,0,0,2.392-4.315,27.672,27.672,0,0,1,1.636-2.779c.484-.738,1.279-1.462,1.284-2.394A1.915,1.915,0,0,0,194.894,226.92Z" transform="translate(-0.844 -0.845)"/>
    <g id="Group_578" data-name="Group 578" transform="translate(154.961 223.657)">
      <path id="Path_2108" data-name="Path 2108" d="M194.513,225.887a3.177,3.177,0,0,0-1.335-1.5,6.029,6.029,0,0,0-2.577-.687,12.007,12.007,0,0,0-7.161,1.569,12.689,12.689,0,0,0-3.967,4.522c-.327.522-.665,1.063-1.018,1.57a5.153,5.153,0,0,1-1.078,1.248,2.846,2.846,0,0,1-1.85.29c-.207-.01-.422-.021-.634-.022h-.132c-.211,0-.426.011-.633.022a2.845,2.845,0,0,1-1.85-.29,5.142,5.142,0,0,1-1.078-1.247c-.353-.507-.691-1.048-1.018-1.57a12.694,12.694,0,0,0-3.967-4.522,12,12,0,0,0-7.161-1.569,6.028,6.028,0,0,0-2.576.687,3.178,3.178,0,0,0-1.335,1.5,2.41,2.41,0,0,0-.182.92,3.607,3.607,0,0,0,.977,2.132c.142.186.276.361.389.534a27.487,27.487,0,0,1,1.607,2.728c.182.364.357.748.527,1.119a12.665,12.665,0,0,0,1.94,3.306,17.415,17.415,0,0,0,2.821,2.286c.5.357.988.7,1.4,1.024a5.061,5.061,0,0,0-.81,2.74,5,5,0,0,0,.83,2.771,6.936,6.936,0,0,0,.8,4.745,14.3,14.3,0,0,0,2.167,2.666l.064.062c.155.152.436.429.736.675-.009.039-.017.078-.024.117a2.987,2.987,0,0,0,.223,1.763,2.538,2.538,0,0,0,1.06,1.113,4.874,4.874,0,0,0,1.275.5,4.167,4.167,0,0,0,3.844,2.355h.087a4.168,4.168,0,0,0,3.844-2.355l.11-.03.054-.015.181-.054.047-.015.133-.044.061-.022.117-.044.064-.025.112-.047.063-.028c.039-.018.078-.037.117-.056l.052-.026q.083-.044.164-.092a2.536,2.536,0,0,0,1.061-1.113,2.987,2.987,0,0,0,.223-1.763c-.007-.039-.015-.078-.024-.117.3-.247.581-.523.736-.675l.064-.063a14.284,14.284,0,0,0,2.167-2.666,6.933,6.933,0,0,0,.8-4.745,5,5,0,0,0,.83-2.771,5.064,5.064,0,0,0-.81-2.74c.412-.325.9-.667,1.4-1.024a17.374,17.374,0,0,0,2.821-2.286,12.657,12.657,0,0,0,1.939-3.306c.17-.371.345-.756.527-1.119a27.451,27.451,0,0,1,1.607-2.728c.112-.172.247-.348.39-.534a3.606,3.606,0,0,0,.976-2.132A2.406,2.406,0,0,0,194.513,225.887ZM174.87,258.442h-.085a3.325,3.325,0,0,1-2.5-1.086l.045,0a1.549,1.549,0,0,0,.469-.07,5.3,5.3,0,0,0,.579-.23l.193-.085c.155-.068.31-.137.464-.209a2.335,2.335,0,0,0,.838-.626,2.336,2.336,0,0,0,.838.626c.155.073.312.141.468.211l.189.083a5.4,5.4,0,0,0,.579.23,1.521,1.521,0,0,0,.42.068A3.325,3.325,0,0,1,174.87,258.442Zm18.054-30.111c-.147.192-.3.39-.432.593a28.486,28.486,0,0,0-1.665,2.829c-.189.379-.369.772-.542,1.151a11.731,11.731,0,0,1-1.775,3.054,16.786,16.786,0,0,1-2.654,2.137c-.677.479-1.317.931-1.829,1.374a.5.5,0,0,0-.071.681l.018.021a4.04,4.04,0,0,1,.1,4.873.5.5,0,0,0-.083.4,6,6,0,0,1-.627,4.223,13.246,13.246,0,0,1-2.011,2.473l-.069.067c-.1.1-.265.26-.446.422a3.414,3.414,0,0,0-.861-.912.5.5,0,1,0-.587.808,2.319,2.319,0,0,1,.814,1.055c.013.036.024.073.035.109.005.017.011.033.016.05.014.051.026.1.036.155a1.963,1.963,0,0,1-.148,1.159,1.525,1.525,0,0,1-.67.677,2.373,2.373,0,0,1-.274.141,6.415,6.415,0,0,1-.97.306h0c-.075.019-.151.041-.228.063a1.461,1.461,0,0,1-.754.093,4.643,4.643,0,0,1-.472-.19l-.192-.084c-.15-.066-.3-.132-.448-.2a1.278,1.278,0,0,1-.545-.426,1.1,1.1,0,0,1-.23-.609v-1.458a1.183,1.183,0,0,1,.107-.386,1.876,1.876,0,0,1,.7-.526c.17-.082.353-.15.547-.222.158-.058.321-.119.483-.19a2.285,2.285,0,0,0,1-.753,2.016,2.016,0,0,0,.314-.816,1.614,1.614,0,0,0-.271-1.32,1.848,1.848,0,0,0-.958-.561,8.412,8.412,0,0,0-2.385-.355h-.04a8.335,8.335,0,0,0-2.386.355,1.848,1.848,0,0,0-.958.561,1.614,1.614,0,0,0-.272,1.32,2.026,2.026,0,0,0,.314.816,2.289,2.289,0,0,0,1,.753c.163.071.326.132.483.19.194.072.376.14.547.222a1.876,1.876,0,0,1,.7.524,1.071,1.071,0,0,1,.083.374v1.477a1.045,1.045,0,0,1-.2.6,1.275,1.275,0,0,1-.545.426c-.147.069-.295.134-.443.2l-.2.087a4.686,4.686,0,0,1-.473.19,1.463,1.463,0,0,1-.754-.093c-.077-.022-.153-.043-.228-.062a4.728,4.728,0,0,1-1.244-.447,1.527,1.527,0,0,1-.669-.677,1.908,1.908,0,0,1-.061-1.473,2.318,2.318,0,0,1,.814-1.054.5.5,0,0,0-.588-.808,3.4,3.4,0,0,0-.893.965c-.205-.18-.393-.365-.507-.477l-.068-.067a13.249,13.249,0,0,1-2.011-2.473,6,6,0,0,1-.627-4.223.5.5,0,0,0-.084-.4,4.04,4.04,0,0,1,.1-4.869l.007-.008a.5.5,0,0,0-.058-.7c-.513-.442-1.152-.895-1.829-1.374a16.766,16.766,0,0,1-2.653-2.137,11.733,11.733,0,0,1-1.775-3.054c-.173-.379-.352-.772-.542-1.151a28.476,28.476,0,0,0-1.665-2.829c-.133-.2-.285-.4-.432-.593a2.8,2.8,0,0,1-.77-1.529,1.408,1.408,0,0,1,.109-.539,2.16,2.16,0,0,1,.913-1.011,4.371,4.371,0,0,1,1.642-.5,13.053,13.053,0,0,1,4.192,1.918,11.748,11.748,0,0,1,4.38,6.78,8.9,8.9,0,0,1,.107,1.753,1.994,1.994,0,0,1-.659,1.311,1.7,1.7,0,0,0-.386.461.412.412,0,0,0,.132.531.513.513,0,0,0,.229.04,8.015,8.015,0,0,0,1.966-.418,8.619,8.619,0,0,0,2.5-.728c.385-.236.759-.49,1.151-.716a2.364,2.364,0,0,1,1.2-.425.614.614,0,0,1,.538.274c.211.372.442.761.892.847.449-.086.68-.475.891-.847a.614.614,0,0,1,.538-.274,2.362,2.362,0,0,1,1.2.425c.392.225.765.48,1.151.716a8.622,8.622,0,0,0,2.5.728,8.015,8.015,0,0,0,1.966.418.515.515,0,0,0,.229-.04.412.412,0,0,0,.132-.531,1.7,1.7,0,0,0-.385-.461,1.993,1.993,0,0,1-.659-1.311,8.9,8.9,0,0,1,.107-1.753,11.748,11.748,0,0,1,4.38-6.78,13.119,13.119,0,0,1,4.158-1.911,4.313,4.313,0,0,1,1.59.492,2.16,2.16,0,0,1,.913,1.011,1.412,1.412,0,0,1,.109.539A2.806,2.806,0,0,1,192.925,228.332Z" transform="translate(-154.961 -223.657)"/>
      <path id="Path_2109" data-name="Path 2109" d="M241.7,231.588a2.59,2.59,0,0,0-1.1.391,6.672,6.672,0,0,0-2.021,2.15,10.969,10.969,0,0,0-1.2,2.391l-.015.044h0c-.045.13-.087.261-.129.393a8.6,8.6,0,0,1-.41,1.1,2.923,2.923,0,0,1-.427.667c-.034.038-.074.079-.116.122a1.258,1.258,0,0,0-.343.475.3.3,0,0,0,.127.364.153.153,0,0,0,.064.012,1.2,1.2,0,0,0,.336-.086l.02-.007a3.366,3.366,0,0,0,1.684-1.767c.2-.387.392-.788.575-1.175a18.562,18.562,0,0,1,1.061-2.024,10.487,10.487,0,0,1,.983-1.348,6.423,6.423,0,0,1,.868-.829,5.057,5.057,0,0,0,.477-.426c.1-.107.136-.2.1-.29C242.143,231.574,241.828,231.579,241.7,231.588Z" transform="translate(-205.796 -228.635)"/>
      <path id="Path_2110" data-name="Path 2110" d="M170.01,238.841c-.042-.043-.082-.084-.116-.122a2.931,2.931,0,0,1-.427-.667,8.6,8.6,0,0,1-.41-1.1c-.042-.131-.085-.262-.129-.393l-.015-.044a10.969,10.969,0,0,0-1.2-2.391,6.672,6.672,0,0,0-2.021-2.15,2.59,2.59,0,0,0-1.1-.391c-.132-.009-.447-.013-.525.152-.04.085-.007.183.1.29a5.1,5.1,0,0,0,.477.426,6.424,6.424,0,0,1,.868.829,10.478,10.478,0,0,1,.983,1.348,18.618,18.618,0,0,1,1.061,2.025c.183.387.372.788.574,1.174a3.366,3.366,0,0,0,1.684,1.767l.02.007a1.2,1.2,0,0,0,.336.086.154.154,0,0,0,.064-.012.3.3,0,0,0,.127-.364A1.254,1.254,0,0,0,170.01,238.841Z" transform="translate(-160.666 -228.635)"/>
    </g>
    <path id="Path_2111" data-name="Path 2111" class="cls-3" d="M205.912,292.1a3.962,3.962,0,0,0-1.2-.369,9.389,9.389,0,0,0-1.543-.114h0a9.382,9.382,0,0,0-1.543.114,3.961,3.961,0,0,0-1.2.369.655.655,0,0,0-.385.752.156.156,0,0,0,.024.06.128.128,0,0,0,.122.041.307.307,0,0,0,.122-.057,2.74,2.74,0,0,1,.234-.164,3.486,3.486,0,0,1,.408-.175.651.651,0,0,1,.69.045,1,1,0,0,1,.249.509c.049.182.057.368.094.552a5.292,5.292,0,0,0,.131.566,1.27,1.27,0,0,0,.057.131,1.187,1.187,0,0,0,.067.137.625.625,0,0,0,.04.058,1.033,1.033,0,0,0,.43.32.985.985,0,0,0,.929,0,1.038,1.038,0,0,0,.43-.32.621.621,0,0,0,.039-.058,1.256,1.256,0,0,0,.067-.137,1.27,1.27,0,0,0,.057-.131,5.288,5.288,0,0,0,.131-.566c.038-.183.045-.37.095-.552a1,1,0,0,1,.248-.509.652.652,0,0,1,.69-.045,3.468,3.468,0,0,1,.409.175,2.8,2.8,0,0,1,.234.164.305.305,0,0,0,.121.057.128.128,0,0,0,.122-.041.156.156,0,0,0,.024-.06A.654.654,0,0,0,205.912,292.1Z" transform="translate(-28.293 -42.674)"/>
    <path id="Path_2112" data-name="Path 2112" d="M195.744,261.232a5.048,5.048,0,0,0-4.713,3.256,1.935,1.935,0,0,0-2.524,0,5.038,5.038,0,1,0,.327,1.784c0-.1,0-.206-.01-.307h0a.944.944,0,1,1,1.889,0h0c-.006.1-.01.2-.01.307a5.04,5.04,0,1,0,5.04-5.04Zm-11.95,9.08a4.04,4.04,0,1,1,4.04-4.04A4.045,4.045,0,0,1,183.793,270.312Zm11.95,0a4.04,4.04,0,1,1,4.04-4.04A4.045,4.045,0,0,1,195.744,270.312Z" transform="translate(-14.94 -23.595)"/>
    <g id="Group_585" data-name="Group 585" transform="translate(165.582 240.334)">
      <g id="Group_581" data-name="Group 581" transform="translate(11.841 0)">
        <g id="Group_580" data-name="Group 580">
          <g id="Group_579" data-name="Group 579">
            <path id="Path_2113" data-name="Path 2113" d="M215.838,270.8a.5.5,0,0,1-.263-.925c.171-.106.341-.217.512-.33.331-.217.674-.442,1.03-.629a3.923,3.923,0,0,1,2.095-.423,4.712,4.712,0,0,1,2.739,1.212.5.5,0,1,1-.665.746,3.71,3.71,0,0,0-2.15-.961,2.9,2.9,0,0,0-1.555.312c-.313.164-.62.366-.945.579-.179.117-.357.234-.536.344A.5.5,0,0,1,215.838,270.8Z" transform="translate(-215.337 -268.483)"/>
          </g>
        </g>
        <circle id="Ellipse_162" data-name="Ellipse 162" cx="1.611" cy="1.611" r="1.611" transform="translate(1.823 0.682)"/>
      </g>
      <g id="Group_584" data-name="Group 584" transform="translate(0 0)">
        <g id="Group_583" data-name="Group 583">
          <g id="Group_582" data-name="Group 582">
            <path id="Path_2114" data-name="Path 2114" d="M189.79,270.8a.5.5,0,0,1-.262-.075c-.179-.11-.357-.227-.535-.344-.326-.214-.633-.416-.946-.579a2.91,2.91,0,0,0-1.554-.312,3.708,3.708,0,0,0-2.15.961.5.5,0,0,1-.666-.746,4.712,4.712,0,0,1,2.739-1.212,3.92,3.92,0,0,1,2.095.423c.356.187.7.411,1.03.629.171.112.341.224.512.33a.5.5,0,0,1-.263.925Z" transform="translate(-183.51 -268.483)"/>
          </g>
        </g>
        <circle id="Ellipse_163" data-name="Ellipse 163" cx="1.611" cy="1.611" r="1.611" transform="translate(1.735 0.682)"/>
      </g>
      <path id="Path_2115" data-name="Path 2115" class="cls-3" d="M225.185,272.9a1.091,1.091,0,0,0-.23-.278.37.37,0,0,0-.34-.073.376.376,0,0,0,.017.39c.067.12.166.22.228.342.053.1.089.228.191.281a.246.246,0,0,0,.3-.1.4.4,0,0,0,.03-.335,1.163,1.163,0,0,0-.166-.3.572.572,0,0,0-.551-.319" transform="translate(-209.293 -271.005)"/>
      <path id="Path_2116" data-name="Path 2116" class="cls-3" d="M193.24,272.9a1.092,1.092,0,0,0-.23-.278.369.369,0,0,0-.339-.073.375.375,0,0,0,.017.39c.067.12.165.22.228.342.053.1.088.228.191.281a.246.246,0,0,0,.3-.1.4.4,0,0,0,.031-.335,1.185,1.185,0,0,0-.166-.3.573.573,0,0,0-.551-.319" transform="translate(-189.232 -271.005)"/>
    </g>
  </g>
</svg>
