<?xml version="1.0" encoding="iso-8859-1"?>
<!-- Generator: Adobe Illustrator 25.2.3, SVG Export Plug-In . SVG Version: 6.00 Build 0)  -->
<svg version="1.1" id="Layer_1" xmlns="http://www.w3.org/2000/svg" xmlns:xlink="http://www.w3.org/1999/xlink" x="0px" y="0px" 
	 viewBox="0 0 50 50" style="enable-background:new 0 0 50 50;" xml:space="preserve">
<path style="fill:none;stroke:#000000;stroke-width:2;stroke-linecap:round;stroke-linejoin:round;stroke-miterlimit:2;" d="
	M32.947,19.556c2.662-3.725,9.683-11.793,14.024-10.237c0.924,0.286,1.756,1.046,1.924,2.025c0.611,2.552-1.497,4.17-5.422,10.566
	c-4.799,7.823-6.272,13.013-8.4,15.104c-4.179,4.665-12.647,2.61-11.64-10.119c-5.032,8.221-6.277,18.244-14.788,16.554
	c-8.934-2.418-8.516-23.45-6.44-28.874c0.142-0.691,0.485-1.314,0.79-1.941c2.117-4.092,7.021-4.118,9.112-1.69
	c2.145,2.492,1.519,7.609,1.189,10.958c2.215-3.848,6.058-9.344,9.605-12.072C28.437,5.713,34.828,8.373,32.947,19.556z"/>
</svg>